<svg width="80" height="80" viewBox="0 0 80 80" fill="none" xmlns="http://www.w3.org/2000/svg">
<path d="M47.1996 55.8702C47.6619 55.8702 48.1981 55.8994 48.7768 55.9291C49.3207 55.9553 49.9198 55.9804 50.5421 55.922L56.1634 68.9123H44.0434L41.3344 63.9067C40.7475 62.8314 39.2042 62.8314 38.6219 63.9067L35.9094 68.9123H23.7904L29.4168 55.922C30.0545 55.9855 30.667 55.9553 31.2237 55.9291C32.38 55.8702 33.3718 55.8189 33.9362 55.9717C34.5067 56.1249 35.3365 56.6657 36.3088 57.2895C37.2786 57.9189 38.4518 58.6718 39.9998 58.6718C41.5478 58.6718 42.7252 57.9189 43.6943 57.2895C44.6641 56.6647 45.498 56.1254 46.0639 55.9717V55.9645C46.3484 55.8912 46.7352 55.8651 47.1996 55.8702ZM42.0201 11.9719C42.9002 12.5424 43.9037 13.3204 45.2688 13.6874C46.6337 14.0534 47.889 13.8775 48.9347 13.8278C49.9757 13.7725 50.7333 13.8442 51.1244 14.0687C51.5196 14.2989 51.9579 14.916 52.434 15.8422C52.9107 16.7746 53.3874 17.956 54.3864 18.9546C55.3905 19.9541 56.5648 20.4307 57.4915 20.9069C58.4228 21.3836 59.0425 21.8213 59.2731 22.2175C59.4992 22.6086 59.5663 23.3606 59.5125 24.4026C59.4612 25.4482 59.2829 26.708 59.6529 28.0725C60.0179 29.4374 60.8011 30.437 61.3706 31.318C61.9364 32.195 62.2506 32.891 62.2506 33.3422C62.2506 33.7927 61.9364 34.4821 61.3706 35.3626C60.8016 36.2381 60.0184 37.2371 59.6529 38.6025C59.2864 39.9674 59.4618 41.2309 59.5125 42.2725C59.5663 43.3181 59.4997 44.0721 59.2731 44.4631C59.0435 44.8552 58.4233 45.2924 57.4915 45.7676C56.5648 46.2443 55.3915 46.7245 54.3864 47.724C53.3879 48.7235 52.9113 49.9014 52.434 50.8332C51.9717 51.7389 51.5458 52.3386 51.1577 52.5764L50.6441 52.7681C50.2228 52.8619 49.6523 52.8865 48.9343 52.8532C47.8886 52.7978 46.6375 52.6235 45.2684 52.9895C43.9035 53.356 42.9008 54.1341 42.0197 54.7031C41.1427 55.2689 40.4538 55.5883 39.9992 55.5883C39.5477 55.5883 38.8593 55.2689 37.9788 54.7031C37.1033 54.1341 36.1003 53.356 34.7347 52.9895C33.3647 52.6235 32.1099 52.7983 31.0688 52.8532C30.3031 52.8916 29.6988 52.8624 29.2702 52.7512L28.8622 52.5984C28.4742 52.3647 28.0375 51.7558 27.5655 50.8342C27.0888 49.9019 26.6121 48.7245 25.6131 47.7251C24.6131 46.7256 23.4399 46.2459 22.508 45.7686C21.5767 45.2925 20.957 44.8558 20.7299 44.4642C20.5054 44.0731 20.4367 43.3196 20.4874 42.2735C20.5428 41.2315 20.7171 39.9737 20.3521 38.6035C19.9872 37.2386 19.1994 36.239 18.6345 35.3637C18.064 34.4826 17.7544 33.7942 17.7544 33.3432C17.7544 32.8927 18.064 32.1961 18.6345 31.3191C19.1988 30.438 19.9867 29.439 20.3521 28.0736C20.7171 26.7101 20.5433 25.4544 20.4874 24.4087C20.4362 23.3667 20.5044 22.6101 20.7299 22.2195C20.9559 21.8228 21.5766 21.3861 22.508 20.9089C23.4393 20.4327 24.6126 19.956 25.6131 18.9565C26.6116 17.958 27.0882 16.7766 27.5655 15.8442C28.0406 14.9175 28.484 14.3003 28.8751 14.0707C29.2661 13.8462 30.0232 13.7734 31.0699 13.8298C32.1109 13.8795 33.3708 14.0553 34.7358 13.6893C36.1007 13.3229 37.1033 12.5448 37.9799 11.9738C38.8599 11.409 39.5493 11.0897 40.0003 11.0897C40.454 11.0886 41.1431 11.407 42.0201 11.9719ZM39.9991 8.00049C38.4512 8.00049 37.2769 8.75242 36.3082 9.38285C35.3358 10.0123 34.506 10.5571 33.9355 10.7088C33.3712 10.8579 32.3794 10.8026 31.223 10.7436C30.0698 10.6883 28.671 10.6196 27.3322 11.3946C25.9924 12.1686 25.3548 13.4105 24.8273 14.4392C24.3009 15.4679 23.8452 16.3572 23.4336 16.7744C23.0154 17.186 22.1322 17.6335 21.1025 18.16C20.0738 18.6864 18.8369 19.3291 18.063 20.6741C17.288 22.0128 17.3485 23.4024 17.4074 24.5603C17.4628 25.713 17.5227 26.7033 17.369 27.2733C17.2157 27.8392 16.6719 28.668 16.0425 29.6419C15.4172 30.6116 14.6693 31.7932 14.6693 33.3406C14.6693 34.8886 15.4172 36.0618 16.0425 37.0316C16.6719 38.0049 17.2168 38.8342 17.369 39.4053C17.5222 39.9701 17.4628 40.9604 17.4074 42.1178C17.3485 43.27 17.288 44.6601 18.063 45.9994C18.8359 47.3438 20.0737 47.9897 21.1025 48.5135C22.1327 49.0409 23.0164 49.4869 23.4336 49.9041C23.8452 50.3162 24.3014 51.2045 24.8273 52.2343C25.2404 53.0415 25.7294 53.9815 26.5721 54.7222L20.0271 69.8396C19.5838 70.8555 20.3285 71.996 21.4388 72.0001H36.8238C37.3928 72.0001 37.913 71.69 38.1806 71.1918L39.9746 67.8796L41.7732 71.1918C42.0407 71.689 42.5646 72.0001 43.13 72.0001L58.515 71.9986C59.6278 71.9986 60.3771 70.8586 59.9307 69.8381L53.3941 54.7496C54.2572 54.0058 54.7544 53.053 55.1757 52.2323C55.7031 51.2026 56.1547 50.3143 56.5663 49.9022C56.9846 49.485 57.8729 49.0385 58.9006 48.5116C59.9308 47.9882 61.163 47.3424 61.937 45.9975C62.712 44.6587 62.6561 43.267 62.5977 42.1158C62.5372 40.959 62.4783 39.9687 62.631 39.4033C62.7843 38.8328 63.3322 38.003 63.9575 37.0296C64.5869 36.0599 65.3307 34.8866 65.3307 33.3387C65.3307 31.7907 64.5874 30.6103 63.9575 29.6399C63.3322 28.6661 62.7832 27.8373 62.631 27.2714C62.4778 26.7065 62.5372 25.7111 62.5977 24.5583C62.6567 23.4015 62.713 22.0109 61.937 20.6721C61.1641 19.3277 59.9309 18.6849 58.9006 18.158C57.8718 17.6306 56.9836 17.1842 56.5663 16.7725C56.1548 16.3553 55.7032 15.4655 55.1757 14.4373C54.6493 13.4086 54.0117 12.1666 52.6678 11.3927C51.3279 10.6177 49.9292 10.6863 48.7764 10.7427C47.6201 10.8017 46.6283 10.857 46.0639 10.7079C45.4981 10.5562 44.6636 10.0113 43.6943 9.38194C42.7246 8.75302 41.5481 8.00049 39.9991 8.00049Z" fill="#283350"/>
<path d="M47.9148 23.8363C47.5144 23.8445 47.1367 24.0101 46.8558 24.3002L30.9249 40.1393C30.2995 40.7344 30.2872 41.7297 30.8962 42.3428C31.5035 42.9553 32.499 42.9471 33.0981 42.3259L49.0264 26.4855C50.0392 25.5075 49.3201 23.7976 47.9141 23.8361L47.9148 23.8363Z" fill="#D23B38"/>
<path d="M35.4846 25.6525C36.3903 26.5541 36.395 27.9574 35.4975 28.8498C34.5994 29.7489 33.1802 29.7489 32.2749 28.8427C31.3692 27.9406 31.3692 26.5321 32.2652 25.6397C33.1627 24.7468 34.5744 24.7509 35.4846 25.6525ZM37.6712 23.4746C35.5866 21.3998 32.1632 21.391 30.0806 23.4618C27.9914 25.5365 28.0011 28.9427 30.0888 31.019C32.1735 33.0938 35.5999 33.1026 37.6876 31.0262C39.7722 28.9555 39.7588 25.5495 37.6747 23.4741H37.6712L37.6712 23.4746Z" fill="#D23B38"/>
<path d="M47.6799 37.7795C48.5856 38.6816 48.5856 40.0927 47.6881 40.9865C46.7916 41.8799 45.3759 41.8799 44.4703 40.9783C43.56 40.0767 43.56 38.6651 44.4575 37.7727C45.3585 36.8778 46.7742 36.8778 47.68 37.7794L47.6799 37.7795ZM49.8696 35.6067C47.782 33.5319 44.3555 33.5231 42.2709 35.5995C40.1863 37.6702 40.1914 41.0804 42.2791 43.1516C44.3637 45.2264 47.7953 45.2352 49.8794 43.1645C51.9624 41.0891 51.9541 37.6781 49.8696 35.6067Z" fill="#D23B38"/>
</svg>
