<svg width="80" height="80" viewBox="0 0 80 80" fill="none" xmlns="http://www.w3.org/2000/svg">
<path d="M56.8818 71.8233C55.7673 72.2986 54.4725 71.7823 53.989 70.6678L47.9492 56.5886H32.3048C30.3626 56.5886 28.4777 55.9412 26.937 54.7611C25.3963 53.581 24.29 51.9256 23.7901 50.0489L20.1925 36.5516C19.6434 34.3636 19.9712 32.0444 21.1185 30.1021C22.2658 28.1599 24.1261 26.7421 26.306 26.1603C28.4859 25.5784 30.8051 25.8817 32.7719 26.9962C34.7305 28.1107 36.1729 29.9546 36.7875 32.1345L38.615 38.9774H49.3997C50.6126 38.9774 51.6042 39.9608 51.6042 41.1819C51.6042 42.3947 50.6208 43.3863 49.3997 43.3863H38.8527C36.7137 43.3863 34.8453 41.9522 34.2962 39.887L32.5343 33.2818C32.231 32.2328 31.5263 31.3396 30.5756 30.8069C29.625 30.266 28.5023 30.1267 27.4451 30.4053C26.3879 30.684 25.4865 31.3724 24.9292 32.3148C24.372 33.2572 24.1999 34.38 24.4621 35.4371L28.0597 48.9262C28.3138 49.8605 28.8629 50.6964 29.6332 51.2864C30.4035 51.8764 31.346 52.1961 32.3212 52.2042H50.8666L58.0455 68.955C58.529 70.0695 58.0046 71.3725 56.89 71.8479L56.8818 71.8233Z" fill="#304C5F"/>
<path d="M27.4205 21.3989C30.539 21.3989 33.0669 18.8709 33.0669 15.7525C33.0669 12.6341 30.539 10.1061 27.4205 10.1061C24.3021 10.1061 21.7741 12.6341 21.7741 15.7525C21.7741 18.8709 24.3021 21.3989 27.4205 21.3989Z" stroke="#304C5F" stroke-width="3" stroke-miterlimit="10"/>
<path d="M12.6694 35.2979L18.7174 58.5063C19.4303 61.2599 21.9135 63.1775 24.7571 63.1775H45.253" stroke="#304C5F" stroke-width="3" stroke-miterlimit="10" stroke-linecap="round"/>
<path d="M67.3306 11.3026V8.61463C67.3306 8.27863 67.052 8 66.716 8H54.7348C54.3988 8 54.1201 8.27863 54.1201 8.61463V11.3026C54.1201 12.7613 54.6118 14.1873 55.5051 15.3346C56.382 16.4573 57.5866 17.2686 58.9552 17.6456C59.0208 17.662 59.07 17.7276 59.07 17.7931V22.4725C59.07 22.6856 58.8979 22.8659 58.6766 22.8659H57.4146C56.5049 22.8659 55.7591 23.6034 55.7591 24.5213C55.7591 25.4309 56.4967 26.1767 57.4146 26.1767H64.0198C64.9294 26.1767 65.6752 25.4391 65.6752 24.5213C65.6752 23.6116 64.9376 22.8659 64.0198 22.8659H62.7577C62.5447 22.8659 62.3644 22.6938 62.3644 22.4725V17.7931C62.3644 17.7194 62.4136 17.662 62.4791 17.6456C63.8477 17.2686 65.0606 16.4573 65.9292 15.3346C66.8225 14.1791 67.3142 12.7613 67.3142 11.3026H67.3306Z" stroke="#D23B38" stroke-width="2" stroke-miterlimit="10"/>
</svg>
