<svg width="32" height="32" viewBox="0 0 32 32" fill="none" xmlns="http://www.w3.org/2000/svg">
<path d="M8 8.00004H24V13.28L16 10.6667L8 13.28M5.25334 25.3334H5.33334C7.46667 25.3334 9.33334 24.16 10.6667 22.6667C12 24.16 13.8667 25.3334 16 25.3334C18.1333 25.3334 20 24.16 21.3333 22.6667C22.6667 24.16 24.5333 25.3334 26.6667 25.3334H26.7333L29.2667 16.4134C29.3733 16.08 29.3333 15.7067 29.1867 15.3867C29.0133 15.0667 28.7333 14.8267 28.3867 14.72L26.6667 14.16V8.00004C26.6667 7.2928 26.3857 6.61452 25.8856 6.11442C25.3855 5.61433 24.7072 5.33337 24 5.33337H20V1.33337H12V5.33337H8C7.29276 5.33337 6.61448 5.61433 6.11439 6.11442C5.61429 6.61452 5.33334 7.2928 5.33334 8.00004V14.16L3.61334 14.72C3.26667 14.8267 2.98667 15.0667 2.81334 15.3867C2.66667 15.7067 2.62667 16.08 2.73334 16.4134M26.6667 28C24.8133 28 22.96 27.3734 21.3333 26.2267C18.08 28.5067 13.92 28.5067 10.6667 26.2267C9.04 27.3734 7.18667 28 5.33334 28H2.66667V30.6667H5.33334C7.16 30.6667 8.98667 30.2 10.6667 29.3334C14 31.0667 18 31.0667 21.3333 29.3334C23.0133 30.2 24.8267 30.6667 26.6667 30.6667H29.3333V28H26.6667Z" fill="#D23B38"/>
</svg>
