<svg width="36" height="27" viewBox="0 0 36 27" fill="none" xmlns="http://www.w3.org/2000/svg">
<path d="M1 13.3043C1 6.50884 6.50884 1 13.3043 1H22.6957C29.4912 1 35 6.50884 35 13.3043C35 20.0999 29.4912 25.6087 22.6957 25.6087H13.3043C6.50884 25.6087 1 20.0999 1 13.3043Z" fill="#E30A17" stroke="white" stroke-width="2"/>
<path fill-rule="evenodd" clip-rule="evenodd" d="M22.8938 13.7201C22.8938 17.3899 19.8225 20.3667 16.0313 20.3667C12.24 20.3667 9.16876 17.3899 9.16876 13.7146C9.16876 10.0392 12.24 7.07349 16.0313 7.07349C19.8225 7.07349 22.8938 10.0503 22.8938 13.7201Z" fill="white"/>
<path fill-rule="evenodd" clip-rule="evenodd" d="M23.2312 13.7201C23.2312 16.6582 20.7787 19.0363 17.7469 19.0363C14.715 19.0363 12.2569 16.6526 12.2569 13.7146C12.2569 10.7765 14.715 8.40393 17.7469 8.40393C20.7787 8.40393 23.2369 10.7821 23.2369 13.7201H23.2312Z" fill="#E30A17"/>
<path fill-rule="evenodd" clip-rule="evenodd" d="M24.2269 10.6158L24.1706 13.0715L21.8475 13.6924L24.1425 14.4962L24.0863 16.7524L25.5769 14.9896L27.8381 15.7657L26.5331 13.8753L28.125 11.9961L25.6781 12.6613L24.2269 10.6102V10.6158Z" fill="white"/>
</svg>
