<svg width="80" height="80" viewBox="0 0 80 80" fill="none" xmlns="http://www.w3.org/2000/svg">
<path d="M67.0769 30.1538H12.9231C10.2041 30.1538 8 32.3579 8 35.0769V64.6153C8 67.3343 10.2041 69.5384 12.9231 69.5384H67.0769C69.7959 69.5384 72 67.3343 72 64.6153V35.0769C72 32.3579 69.7959 30.1538 67.0769 30.1538Z" stroke="#304C5F" stroke-width="3" stroke-linecap="round" stroke-linejoin="round"/>
<path d="M20.3077 20.3076V10.4614M40 20.3076V10.4614M59.6923 20.3076V10.4614M72 52.3076H69.5385C66.9271 52.3076 64.4227 51.2702 62.5762 49.4237C60.7297 47.5772 59.6923 45.0728 59.6923 42.4614C59.6923 45.0728 58.6549 47.5772 56.8084 49.4237C54.9619 51.2702 52.4575 52.3076 49.8462 52.3076C47.2348 52.3076 44.7304 51.2702 42.8839 49.4237C41.0374 47.5772 40 45.0728 40 42.4614C40 45.0728 38.9626 47.5772 37.1161 49.4237C35.2696 51.2702 32.7652 52.3076 30.1538 52.3076C27.5425 52.3076 25.0381 51.2702 23.1916 49.4237C21.3451 47.5772 20.3077 45.0728 20.3077 42.4614C20.3077 45.0728 19.2703 47.5772 17.4238 49.4237C15.5773 51.2702 13.0729 52.3076 10.4615 52.3076H8" stroke="#D23B38" stroke-width="3" stroke-linecap="round" stroke-linejoin="round"/>
</svg>
