<svg width="48" height="49" viewBox="0 0 48 49" fill="none" xmlns="http://www.w3.org/2000/svg">
<path d="M15.9969 5.37622C9.82248 5.37622 4.8 10.4033 4.8 16.5793V32.5793C4.8 38.7537 9.82713 43.7762 16.0031 43.7762H32.0031C38.1775 43.7762 43.2 38.7491 43.2 32.5731V16.5731C43.2 10.3987 38.1729 5.37622 31.9969 5.37622H15.9969ZM35.2 11.7762C36.0832 11.7762 36.8 12.493 36.8 13.3762C36.8 14.2594 36.0832 14.9762 35.2 14.9762C34.3168 14.9762 33.6 14.2594 33.6 13.3762C33.6 12.493 34.3168 11.7762 35.2 11.7762ZM24 14.9762C29.2944 14.9762 33.6 19.2818 33.6 24.5762C33.6 29.8706 29.2944 34.1762 24 34.1762C18.7056 34.1762 14.4 29.8706 14.4 24.5762C14.4 19.2818 18.7056 14.9762 24 14.9762ZM24 18.1762C22.3026 18.1762 20.6748 18.8505 19.4745 20.0507C18.2743 21.251 17.6 22.8788 17.6 24.5762C17.6 26.2736 18.2743 27.9015 19.4745 29.1017C20.6748 30.3019 22.3026 30.9762 24 30.9762C25.6974 30.9762 27.3253 30.3019 28.5255 29.1017C29.7257 27.9015 30.4 26.2736 30.4 24.5762C30.4 22.8788 29.7257 21.251 28.5255 20.0507C27.3253 18.8505 25.6974 18.1762 24 18.1762Z" fill="#283350"/>
</svg>
