<svg width="151" height="38" viewBox="0 0 151 38" fill="none" xmlns="http://www.w3.org/2000/svg">
<path d="M1 37.0001C0.447715 37.0001 0 36.5524 0 36.0001V11.0541C0 10.5018 0.447715 10.0541 1 10.0541H4.58C5.13228 10.0541 5.58 10.5018 5.58 11.0541V20.3141C6.276 19.6301 7.062 19.0841 7.938 18.6761C8.826 18.2561 9.864 18.0461 11.052 18.0461C12.024 18.0461 12.924 18.2561 13.752 18.6761C14.58 19.0961 15.294 19.7141 15.894 20.5301C16.494 21.3341 16.962 22.3241 17.298 23.5001C17.646 24.6761 17.82 26.0141 17.82 27.5141C17.82 28.9181 17.622 30.2141 17.226 31.4021C16.842 32.5901 16.296 33.6221 15.588 34.4981C14.892 35.3741 14.052 36.0581 13.068 36.5501C12.096 37.0421 11.016 37.2881 9.828 37.2881C9.276 37.2881 8.778 37.2341 8.334 37.1261C7.902 37.0181 7.5 36.8681 7.128 36.6761C6.768 36.4721 6.432 36.2321 6.12 35.9561C5.82 35.6801 5.526 35.3801 5.238 35.0561L5.04 35.9921C4.956 36.3761 4.8 36.6401 4.572 36.7841C4.356 36.9281 4.068 37.0001 3.708 37.0001H1ZM9.108 22.2401C8.7 22.2401 8.328 22.2821 7.992 22.3661C7.668 22.4381 7.362 22.5461 7.074 22.6901C6.798 22.8341 6.54 23.0201 6.3 23.2481C6.06 23.4641 5.82 23.7161 5.58 24.0041V31.9241C6 32.3921 6.456 32.7221 6.948 32.9141C7.44 33.0941 7.956 33.1841 8.496 33.1841C9.012 33.1841 9.486 33.0821 9.918 32.8781C10.35 32.6741 10.722 32.3501 11.034 31.9061C11.358 31.4501 11.61 30.8621 11.79 30.1421C11.97 29.4221 12.06 28.5461 12.06 27.5141C12.06 26.5301 11.988 25.7021 11.844 25.0301C11.7 24.3581 11.496 23.8181 11.232 23.4101C10.98 22.9901 10.674 22.6901 10.314 22.5101C9.954 22.3301 9.552 22.2401 9.108 22.2401Z" fill="white"/>
<path d="M25.1028 18.3341C25.6551 18.3341 26.1028 18.7818 26.1028 19.3341V30.1781C26.1028 31.1021 26.3128 31.8161 26.7328 32.3201C27.1528 32.8241 27.7708 33.0761 28.5868 33.0761C29.1988 33.0761 29.7688 32.9501 30.2968 32.6981C30.8368 32.4461 31.3588 32.0921 31.8628 31.6361V19.3341C31.8628 18.7818 32.3105 18.3341 32.8628 18.3341H36.4428C36.9951 18.3341 37.4428 18.7818 37.4428 19.3341V36.0001C37.4428 36.5524 36.9951 37.0001 36.4428 37.0001H33.9868C33.2908 37.0001 32.8348 36.6881 32.6188 36.0641L32.2768 34.9841C31.9168 35.3321 31.5448 35.6501 31.1608 35.9381C30.7768 36.2141 30.3628 36.4541 29.9188 36.6581C29.4868 36.8501 29.0188 37.0001 28.5148 37.1081C28.0108 37.2281 27.4588 37.2881 26.8588 37.2881C25.8388 37.2881 24.9328 37.1141 24.1408 36.7661C23.3608 36.4061 22.7008 35.9081 22.1608 35.2721C21.6208 34.6361 21.2128 33.8861 20.9368 33.0221C20.6608 32.1581 20.5228 31.2101 20.5228 30.1781V19.3341C20.5228 18.7818 20.9705 18.3341 21.5228 18.3341H25.1028Z" fill="white"/>
<path d="M53.1776 22.4201C53.0336 22.6481 52.8776 22.8101 52.7096 22.9061C52.5536 23.0021 52.3496 23.0501 52.0976 23.0501C51.8336 23.0501 51.5696 22.9961 51.3056 22.8881C51.0416 22.7681 50.7536 22.6421 50.4416 22.5101C50.1416 22.3781 49.7996 22.2581 49.4156 22.1501C49.0316 22.0301 48.5936 21.9701 48.1016 21.9701C47.3936 21.9701 46.8476 22.1081 46.4636 22.3841C46.0916 22.6481 45.9056 23.0201 45.9056 23.5001C45.9056 23.8481 46.0256 24.1361 46.2656 24.3641C46.5176 24.5921 46.8476 24.7961 47.2556 24.9761C47.6636 25.1441 48.1256 25.3061 48.6416 25.4621C49.1576 25.6181 49.6856 25.7921 50.2256 25.9841C50.7656 26.1761 51.2936 26.4041 51.8096 26.6681C52.3256 26.9201 52.7876 27.2381 53.1956 27.6221C53.6036 27.9941 53.9276 28.4501 54.1676 28.9901C54.4196 29.5301 54.5456 30.1781 54.5456 30.9341C54.5456 31.8581 54.3776 32.7101 54.0416 33.4901C53.7056 34.2701 53.2016 34.9421 52.5296 35.5061C51.8696 36.0701 51.0476 36.5081 50.0636 36.8201C49.0916 37.1321 47.9696 37.2881 46.6976 37.2881C46.0616 37.2881 45.4256 37.2281 44.7896 37.1081C44.1536 36.9881 43.5356 36.8261 42.9356 36.6221C42.3476 36.4181 41.8016 36.1781 41.2976 35.9021C41.0721 35.7732 40.8611 35.6408 40.6644 35.5047C40.2637 35.2275 40.1918 34.6829 40.452 34.271L41.2976 32.9321C41.4536 32.6921 41.6396 32.5061 41.8556 32.3741C42.0716 32.2301 42.3536 32.1581 42.7016 32.1581C43.0256 32.1581 43.3136 32.2301 43.5656 32.3741C43.8296 32.5181 44.1116 32.6741 44.4116 32.8421C44.7116 33.0101 45.0596 33.1661 45.4556 33.3101C45.8636 33.4541 46.3736 33.5261 46.9856 33.5261C47.4176 33.5261 47.7836 33.4841 48.0836 33.4001C48.3836 33.3041 48.6236 33.1781 48.8036 33.0221C48.9836 32.8661 49.1156 32.6921 49.1996 32.5001C49.2836 32.3081 49.3256 32.1101 49.3256 31.9061C49.3256 31.5341 49.1996 31.2281 48.9476 30.9881C48.6956 30.7481 48.3656 30.5441 47.9576 30.3761C47.5496 30.1961 47.0816 30.0341 46.5536 29.8901C46.0376 29.7341 45.5096 29.5601 44.9696 29.3681C44.4296 29.1761 43.8956 28.9481 43.3676 28.6841C42.8516 28.4081 42.3896 28.0661 41.9816 27.6581C41.5736 27.2381 41.2436 26.7281 40.9916 26.1281C40.7396 25.5281 40.6136 24.8021 40.6136 23.9501C40.6136 23.1581 40.7636 22.4081 41.0636 21.7001C41.3756 20.9801 41.8376 20.3501 42.4496 19.8101C43.0616 19.2701 43.8296 18.8441 44.7536 18.5321C45.6776 18.2081 46.7576 18.0461 47.9936 18.0461C48.6656 18.0461 49.3136 18.1061 49.9376 18.2261C50.5736 18.3461 51.1676 18.5141 51.7196 18.7301C52.2716 18.9461 52.7756 19.2041 53.2316 19.5041C53.444 19.6382 53.6446 19.7788 53.8335 19.9259C54.2045 20.2149 54.2564 20.7402 54.0023 21.1359L53.1776 22.4201Z" fill="white"/>
<path d="M62.3811 10.0541C62.9334 10.0541 63.3811 10.5018 63.3811 11.0541V36.0001C63.3811 36.5524 62.9334 37.0001 62.3811 37.0001H58.8011C58.2488 37.0001 57.8011 36.5524 57.8011 36.0001V11.0541C57.8011 10.5018 58.2488 10.0541 58.8011 10.0541H62.3811Z" fill="white"/>
<path d="M72.6467 15C73.199 15 73.6467 15.4477 73.6467 16V36.0001C73.6467 36.5524 73.199 37.0001 72.6467 37.0001H69.0667C68.5144 37.0001 68.0667 36.5524 68.0667 36.0001V16C68.0667 15.4477 68.5144 15 69.0667 15H72.6467Z" fill="white"/>
<path d="M79.1523 37.0001C78.6001 37.0001 78.1523 36.5524 78.1523 36.0001V19.3341C78.1523 18.7818 78.6001 18.3341 79.1523 18.3341H81.6083C81.9563 18.3341 82.2443 18.4121 82.4723 18.5681C82.635 18.6738 82.7646 18.8154 82.8611 18.9928C82.9564 19.1679 82.9763 19.3714 82.9763 19.5708V20.5C83.3363 20.164 84.0323 19.7021 84.4163 19.4141C84.8003 19.1261 85.2083 18.8861 85.6403 18.6941C86.0843 18.4901 86.5583 18.3341 87.0623 18.2261C87.5783 18.1061 88.1363 18.0461 88.7363 18.0461C89.7563 18.0461 90.6563 18.2261 91.4363 18.5861C92.2283 18.9341 92.8943 19.4261 93.4343 20.0621C93.9743 20.6861 94.3823 21.4361 94.6583 22.3121C94.9343 23.1761 95.0723 24.1181 95.0723 25.1381V36.0001C95.0723 36.5524 94.6246 37.0001 94.0723 37.0001H90.4923C89.9401 37.0001 89.4923 36.5524 89.4923 36.0001V25.1381C89.4923 24.2261 89.2823 23.5181 88.8623 23.0141C88.4423 22.4981 87.8243 22.2401 87.0083 22.2401C86.3963 22.2401 85.8203 22.3721 85.2803 22.6361C84.7403 22.9001 84.2243 23.2541 83.7323 23.6981V36.0001C83.7323 36.5524 83.2846 37.0001 82.7323 37.0001H79.1523Z" fill="white"/>
<path d="M103.615 10.0541C104.167 10.0541 104.615 10.5018 104.615 11.0541V25.1561H105.443C105.791 25.1561 106.055 25.1081 106.235 25.0121C106.427 24.9161 106.607 24.7421 106.775 24.4901L110.303 19.2341C110.507 18.9221 110.747 18.6941 111.023 18.5501C111.311 18.4061 111.671 18.3341 112.103 18.3341H115.253C116.07 18.3341 116.542 19.2607 116.062 19.9217L112.391 24.9761C112.163 25.2881 111.911 25.5641 111.635 25.8041C111.371 26.0441 111.083 26.2601 110.771 26.4521C111.311 26.8601 111.779 27.4001 112.175 28.0721L116.544 35.4928C116.936 36.1594 116.456 37.0001 115.682 37.0001H112.391C111.971 37.0001 111.605 36.9341 111.293 36.8021C110.993 36.6581 110.747 36.4121 110.555 36.0641L107.027 29.4581C106.859 29.1581 106.685 28.9661 106.505 28.8821C106.325 28.7861 106.055 28.7381 105.695 28.7381H104.615V36.0001C104.615 36.5524 104.167 37.0001 103.615 37.0001H100.035C99.4829 37.0001 99.0352 36.5524 99.0352 36.0001V11.0541C99.0352 10.5018 99.4829 10.0541 100.035 10.0541H103.615Z" fill="white"/>
<path d="M126.679 18.0461C127.915 18.0461 129.044 18.2381 130.064 18.6221C131.096 19.0061 131.978 19.5641 132.71 20.2961C133.454 21.0281 134.029 21.9281 134.438 22.9961C134.858 24.0521 135.068 25.2521 135.068 26.5961C135.068 27.0161 135.05 27.3581 135.014 27.6221C134.978 27.8861 134.912 28.0961 134.816 28.2521C134.72 28.4081 134.587 28.5161 134.419 28.5761C134.263 28.6361 134.059 28.6661 133.807 28.6661H123.044C123.224 30.2261 123.697 31.3601 124.465 32.0681C125.233 32.7641 126.224 33.1121 127.436 33.1121C128.084 33.1121 128.641 33.0341 129.109 32.8781C129.577 32.7221 129.992 32.5481 130.352 32.3561C130.724 32.1641 131.059 31.9901 131.359 31.8341C131.671 31.6781 131.995 31.6001 132.331 31.6001C132.775 31.6001 133.111 31.7621 133.339 32.0861L134.43 33.4306C134.736 33.8083 134.73 34.3566 134.379 34.6929C133.97 35.0843 133.54 35.4214 133.087 35.7041C132.427 36.1121 131.744 36.4361 131.036 36.6761C130.34 36.9041 129.638 37.0601 128.93 37.1441C128.234 37.2401 127.568 37.2881 126.932 37.2881C125.624 37.2881 124.394 37.0781 123.242 36.6581C122.102 36.2261 121.099 35.5901 120.235 34.7501C119.383 33.9101 118.705 32.8661 118.201 31.6181C117.709 30.3701 117.464 28.9181 117.464 27.2621C117.464 26.0141 117.673 24.8321 118.093 23.7161C118.525 22.6001 119.137 21.6221 119.929 20.7821C120.733 19.9421 121.699 19.2761 122.827 18.7841C123.967 18.2921 125.251 18.0461 126.679 18.0461ZM126.787 21.8981C125.719 21.8981 124.885 22.2041 124.285 22.8161C123.685 23.4161 123.29 24.2861 123.098 25.4261H130.064C130.064 24.9821 130.003 24.5501 129.883 24.1301C129.775 23.7101 129.59 23.3381 129.326 23.0141C129.074 22.6781 128.738 22.4081 128.318 22.2041C127.898 22.0001 127.387 21.8981 126.787 21.8981Z" fill="white"/>
<path d="M139.27 37.0001C138.717 37.0001 138.27 36.5524 138.27 36.0001V19.3341C138.27 18.7818 138.717 18.3341 139.27 18.3341H141.582C141.858 18.3341 142.086 18.3581 142.266 18.4061C142.458 18.4541 142.614 18.5321 142.734 18.6401C142.866 18.7361 142.962 18.8681 143.022 19.0361C143.094 19.2041 143.154 19.4081 143.202 19.6481L143.508 21.3941C144.192 20.3381 144.96 19.5041 145.812 18.8921C146.664 18.2801 147.594 17.9741 148.602 17.9741C149.199 17.9741 149.714 18.0744 150.146 18.2751C150.48 18.4299 150.614 18.8116 150.55 19.1734L149.934 22.6901C149.886 22.9421 149.79 23.1221 149.646 23.2301C149.502 23.3261 149.31 23.3741 149.07 23.3741C148.866 23.3741 148.626 23.3501 148.35 23.3021C148.074 23.2421 147.726 23.2121 147.306 23.2121C145.842 23.2121 144.69 23.9921 143.85 25.5521V36.0001C143.85 36.5524 143.402 37.0001 142.85 37.0001H139.27Z" fill="white"/>
<circle cx="70.84" cy="6" r="3" fill="white"/>
<circle cx="70.84" cy="6" r="5.5" stroke="white"/>
</svg>
