<svg width="24" height="24" viewBox="0 0 24 24" fill="none" xmlns="http://www.w3.org/2000/svg">
<path fill-rule="evenodd" clip-rule="evenodd" d="M11.4319 1.67296C10.1503 1.67296 8.88134 1.92539 7.69732 2.41582C6.51331 2.90625 5.4375 3.62509 4.53129 4.53129C3.62509 5.4375 2.90625 6.51331 2.41582 7.69732C1.92539 8.88134 1.67296 10.1503 1.67296 11.4319C1.67296 12.7135 1.92539 13.9825 2.41582 15.1665C2.90625 16.3505 3.62509 17.4263 4.53129 18.3325C5.4375 19.2387 6.51331 19.9576 7.69732 20.448C8.88134 20.9384 10.1503 21.1909 11.4319 21.1909C14.0201 21.1909 16.5024 20.1627 18.3325 18.3325C20.1627 16.5024 21.1909 14.0201 21.1909 11.4319C21.1909 8.84368 20.1627 6.36145 18.3325 4.53129C16.5024 2.70114 14.0201 1.67296 11.4319 1.67296ZM0 11.4319C0 5.11927 5.11927 0 11.4319 0C17.7446 0 22.8638 5.11927 22.8638 11.4319C22.8638 14.2871 21.8166 16.8992 20.0856 18.9023L23.7338 22.5515C23.816 22.6281 23.8819 22.7205 23.9276 22.8231C23.9733 22.9257 23.9979 23.0364 23.9999 23.1488C24.0019 23.2611 23.9812 23.3726 23.9391 23.4768C23.8971 23.581 23.8344 23.6756 23.755 23.755C23.6756 23.8344 23.581 23.8971 23.4768 23.9391C23.3726 23.9812 23.2611 24.0019 23.1488 23.9999C23.0364 23.9979 22.9257 23.9733 22.8231 23.9276C22.7205 23.8819 22.6281 23.816 22.5515 23.7338L18.9023 20.0856C16.8281 21.8813 14.1754 22.8679 11.4319 22.8638C5.11927 22.8638 0 17.7446 0 11.4319Z" fill="white"/>
</svg>
