<svg width="120" height="96" viewBox="0 0 120 96" fill="none" xmlns="http://www.w3.org/2000/svg">
<g filter="url(#filter0_d_315_1587)">
<rect x="21.3229" y="21.3229" width="77.3542" height="53.3542" rx="14.5521" fill="white" stroke="#D9D9D9" stroke-width="2.64583"/>
<path fill-rule="evenodd" clip-rule="evenodd" d="M42.6286 55.5625H39.0729C38.8296 55.5625 38.6226 55.743 38.5847 55.9881L37.1466 65.296C37.118 65.4797 37.2573 65.6452 37.4398 65.6452H39.1373C39.3807 65.6452 39.5876 65.4647 39.6256 65.2191L40.0134 62.7087C40.0508 62.4628 40.2583 62.2825 40.5011 62.2825H41.6267C43.969 62.2825 45.3207 61.1254 45.6739 58.8326C45.8329 57.8295 45.6806 57.0413 45.2203 56.4892C44.7151 55.8833 43.8186 55.5625 42.6286 55.5625ZM43.0388 58.9621C42.8444 60.2645 41.8695 60.2645 40.9269 60.2645H40.3904L40.7668 57.832C40.7891 57.6851 40.9139 57.5768 41.0595 57.5768H41.3054C41.9475 57.5768 42.5533 57.5768 42.8663 57.9504C43.0528 58.1734 43.11 58.5045 43.0388 58.9621ZM53.2574 58.9203H51.5547C51.4096 58.9203 51.2842 59.0286 51.2619 59.1757L51.1866 59.6618L51.0675 59.4857C50.6989 58.9395 49.877 58.757 49.0565 58.757C47.1748 58.757 45.5678 60.2117 45.2548 62.2526C45.0921 63.2704 45.3233 64.2437 45.889 64.9226C46.408 65.5467 47.1505 65.8068 48.0337 65.8068C49.5497 65.8068 50.3906 64.8116 50.3906 64.8116L50.3146 65.2947C50.286 65.4794 50.4253 65.645 50.6067 65.645H52.1405C52.3845 65.645 52.5902 65.4645 52.6287 65.2188L53.549 59.2696C53.5781 59.0866 53.4393 58.9203 53.2574 58.9203ZM50.8839 62.3034C50.7195 63.2964 49.9475 63.963 48.9629 63.963C48.4685 63.963 48.0732 63.8012 47.8196 63.4944C47.5679 63.1898 47.4721 62.7561 47.5523 62.2732C47.7058 61.2885 48.4909 60.6003 49.4605 60.6003C49.9438 60.6003 50.337 60.7641 50.5959 61.0736C50.8552 61.3863 50.9582 61.8225 50.8839 62.3034ZM60.6148 58.9201H62.326C62.5656 58.9201 62.7054 59.1944 62.5692 59.3951L56.8782 67.7808C56.7861 67.9167 56.6343 67.9975 56.4721 67.9975H54.7631C54.5225 67.9975 54.382 67.7209 54.5213 67.5198L56.2933 64.9663L54.4087 59.3202C54.3435 59.1239 54.4855 58.9201 54.69 58.9201H56.3713C56.5898 58.9201 56.7825 59.0664 56.8455 59.2799L57.8457 62.69L60.2058 59.1414C60.2982 59.0028 60.4517 58.9201 60.6148 58.9201Z" fill="#253B80"/>
<path fill-rule="evenodd" clip-rule="evenodd" d="M79.1667 65.2957L80.626 55.8177C80.6484 55.6706 80.7732 55.5623 80.9183 55.5618H82.5612C82.7426 55.5618 82.8819 55.7278 82.8532 55.9115L81.4142 65.2188C81.3767 65.4645 81.1698 65.645 80.926 65.645H79.4588C79.2774 65.645 79.1381 65.4794 79.1667 65.2957ZM67.991 55.5623H64.4347C64.1919 55.5623 63.985 55.7428 63.947 55.9879L62.5089 65.2957C62.4803 65.4794 62.6196 65.645 62.8012 65.645H64.626C64.7956 65.645 64.9407 65.5187 64.9671 65.3468L65.3752 62.7084C65.4127 62.4626 65.6201 62.2823 65.8629 62.2823H66.9879C69.3307 62.2823 70.6822 61.1252 71.0356 58.8324C71.1951 57.8293 71.0419 57.0411 70.5818 56.489C70.0768 55.883 69.181 55.5623 67.991 55.5623ZM68.4012 58.9618C68.2073 60.2643 67.2324 60.2643 66.2892 60.2643H65.7532L66.1302 57.8317C66.1526 57.6849 66.2762 57.5765 66.4223 57.5765H66.6682C67.3099 57.5765 67.9162 57.5765 68.229 57.9501C68.4157 58.1731 68.4725 58.5042 68.4012 58.9618ZM78.6189 58.9201H76.9174C76.7711 58.9201 76.6469 59.0284 76.625 59.1755L76.5497 59.6616L76.4301 59.4855C76.0615 58.9392 75.2401 58.7567 74.4197 58.7567C72.5379 58.7567 70.9314 60.2115 70.6184 62.2523C70.4562 63.2701 70.6865 64.2435 71.2521 64.9224C71.7721 65.5465 72.5136 65.8066 73.3969 65.8066C74.9129 65.8066 75.7536 64.8114 75.7536 64.8114L75.6778 65.2945C75.6491 65.4792 75.7885 65.6447 75.9711 65.6447H77.5042C77.747 65.6447 77.9539 65.4642 77.9919 65.2186L78.9127 59.2693C78.9408 59.0863 78.8015 58.9201 78.6189 58.9201ZM76.2456 62.3032C76.0822 63.2962 75.3092 63.9628 74.3244 63.9628C73.8309 63.9628 73.4349 63.8009 73.181 63.4941C72.9294 63.1896 72.8348 62.7558 72.914 62.2729C73.0682 61.2883 73.8523 60.6001 74.822 60.6001C75.3056 60.6001 75.6985 60.7639 75.9576 61.0734C76.2179 61.386 76.3209 61.8222 76.2456 62.3032Z" fill="#179BD7"/>
<path d="M55.7874 52.2325L56.2246 49.3981L55.2509 49.375H50.6013L53.8325 28.4594C53.8424 28.3962 53.8751 28.3374 53.9228 28.2956C53.9704 28.2538 54.0315 28.2307 54.095 28.2307H61.9351C64.5379 28.2307 66.334 28.7836 67.2719 29.8749C67.7114 30.3869 67.9915 30.9218 68.127 31.5106C68.2689 32.1283 68.2716 32.8664 68.1327 33.7666L68.1226 33.8323V34.409L68.5624 34.6633C68.9327 34.8638 69.2267 35.0934 69.4524 35.3562C69.8287 35.7939 70.072 36.3502 70.1747 37.0097C70.2808 37.6881 70.2457 38.4952 70.072 39.4091C69.8713 40.4603 69.547 41.3758 69.1091 42.125C68.7061 42.8152 68.1929 43.3876 67.5837 43.8315C67.0019 44.2529 66.3106 44.573 65.5292 44.7778C64.7718 44.979 63.9085 45.0807 62.9615 45.0807H62.3513C61.9151 45.0807 61.4911 45.241 61.1586 45.5287C60.8252 45.8222 60.6043 46.223 60.5367 46.6617L60.4907 46.9169L59.7184 51.9124L59.6833 52.0959C59.6741 52.1541 59.6582 52.1831 59.6349 52.2027C59.614 52.2204 59.5839 52.2325 59.5545 52.2325H55.7874Z" fill="#253B80"/>
<path d="M68.9787 33.8989C68.9554 34.0516 68.9287 34.2078 68.8986 34.3682C67.8645 39.7872 64.3274 41.6592 59.8096 41.6592H57.5094C56.957 41.6592 56.4915 42.0687 56.4053 42.625L55.2276 50.2497L54.8941 52.4109C54.838 52.7761 55.114 53.1055 55.4749 53.1055H59.5548C60.0379 53.1055 60.4482 52.7471 60.5242 52.2608L60.5644 52.0491L61.3326 47.073L61.3819 46.8001C61.457 46.312 61.8682 45.9537 62.3513 45.9537H62.9615C66.9141 45.9537 70.0085 44.3154 70.9129 39.5747C71.2907 37.5943 71.095 35.9407 70.0953 34.7778C69.7929 34.4271 69.4176 34.1361 68.9787 33.8989Z" fill="#179BD7"/>
<path d="M67.8967 33.4594C67.7389 33.4125 67.5758 33.3698 67.4085 33.3314C67.2406 33.2939 67.0683 33.2606 66.8912 33.2316C66.271 33.1292 65.5915 33.0806 64.8635 33.0806H58.7185C58.5671 33.0806 58.4235 33.1155 58.2948 33.1787C58.0113 33.3178 57.8008 33.5917 57.7498 33.927L56.4424 42.3792L56.4048 42.6258C56.491 42.0695 56.9565 41.6599 57.509 41.6599H59.8091C64.3269 41.6599 67.8642 39.7871 68.8981 34.369C68.9289 34.2086 68.9549 34.0524 68.9782 33.8997C68.7167 33.758 68.4333 33.6369 68.1282 33.5336C68.0531 33.508 67.9754 33.4833 67.8967 33.4594Z" fill="#222D65"/>
<path d="M57.7498 33.9266C57.8009 33.5912 58.0116 33.3173 58.2948 33.1791C58.4245 33.116 58.5674 33.081 58.7185 33.081H64.8637C65.5918 33.081 66.2713 33.1296 66.8913 33.232C67.0686 33.261 67.2409 33.2943 67.4088 33.3318C67.576 33.3702 67.7389 33.4129 67.897 33.4598C67.9754 33.4837 68.0532 33.5084 68.1292 33.5332C68.4343 33.6364 68.7177 33.7585 68.9792 33.8992C69.287 31.8967 68.9768 30.5332 67.9163 29.2985C66.7469 27.9393 64.6364 27.3574 61.9358 27.3574H54.0956C53.5439 27.3574 53.0735 27.767 52.9881 28.3241L49.7226 49.4548C49.6582 49.8728 49.9741 50.2501 50.3869 50.2501H55.2274L56.4427 42.3788L57.7498 33.9266Z" fill="#253B80"/>
</g>
<defs>
<filter id="filter0_d_315_1587" x="0" y="0" width="120" height="96" filterUnits="userSpaceOnUse" color-interpolation-filters="sRGB">
<feFlood flood-opacity="0" result="BackgroundImageFix"/>
<feColorMatrix in="SourceAlpha" type="matrix" values="0 0 0 0 0 0 0 0 0 0 0 0 0 0 0 0 0 0 127 0" result="hardAlpha"/>
<feOffset/>
<feGaussianBlur stdDeviation="10"/>
<feComposite in2="hardAlpha" operator="out"/>
<feColorMatrix type="matrix" values="0 0 0 0 0 0 0 0 0 0 0 0 0 0 0 0 0 0 0.07 0"/>
<feBlend mode="normal" in2="BackgroundImageFix" result="effect1_dropShadow_315_1587"/>
<feBlend mode="normal" in="SourceGraphic" in2="effect1_dropShadow_315_1587" result="shape"/>
</filter>
</defs>
</svg>
