<svg width="164" height="49" viewBox="0 0 164 49" fill="none" xmlns="http://www.w3.org/2000/svg">
<path fill-rule="evenodd" clip-rule="evenodd" d="M157.178 48.1636H6.04639C2.72244 48.1636 0 45.4552 0 42.1421V6.02152C0 2.71124 2.71959 0 6.04639 0H157.178C160.502 0 163.224 2.7084 163.224 6.02152V42.145C163.224 45.4552 160.505 48.1636 157.178 48.1636Z" fill="#FBFBFB"/>
<path d="M68.1239 37.0776C70.9751 37.0776 73.2865 34.7846 73.2865 31.956C73.2865 29.1275 70.9751 26.8345 68.1239 26.8345C65.2726 26.8345 62.9612 29.1275 62.9612 31.956C62.9612 34.7846 65.2726 37.0776 68.1239 37.0776Z" fill="#283350"/>
<path d="M79.3842 37.0776C82.2355 37.0776 84.5469 34.7846 84.5469 31.956C84.5469 29.1275 82.2355 26.8345 79.3842 26.8345C76.533 26.8345 74.2216 29.1275 74.2216 31.956C74.2216 34.7846 76.533 37.0776 79.3842 37.0776Z" fill="#283350"/>
<path fill-rule="evenodd" clip-rule="evenodd" d="M157.178 0.00292969H6.04639C2.72244 0.00292969 0 2.71133 0 6.02445V42.1479C0 45.4582 2.71959 48.1694 6.04639 48.1694H157.178C160.502 48.1694 163.224 45.461 163.224 42.1479V6.0216C163.224 2.71133 160.505 0.00292969 157.178 0.00292969ZM157.178 0.965346C159.977 0.965346 162.255 3.23371 162.255 6.0216V42.145C162.255 44.9329 159.977 47.2013 157.178 47.2013H6.04639C3.24698 47.2013 0.969246 44.9329 0.969246 42.145V6.0216C0.969246 3.23371 3.24698 0.965346 6.04639 0.965346H157.178Z" fill="#CCCED3"/>
<path fill-rule="evenodd" clip-rule="evenodd" d="M57.3338 12.3355C57.3338 13.3462 57.0345 14.1468 56.433 14.7486C55.7488 15.4612 54.8622 15.8161 53.7676 15.8161C52.7213 15.8161 51.8291 15.4555 51.0993 14.7316C50.3638 14.0105 49.9989 13.1105 49.9989 12.0431C49.9989 10.9728 50.3638 10.0756 51.0993 9.35452C51.8291 8.63341 52.7213 8.27002 53.7676 8.27002C54.2864 8.27002 54.7853 8.37222 55.2556 8.57095C55.7289 8.77252 56.108 9.04223 56.3902 9.37723L55.7517 10.0132C55.2728 9.44252 54.6114 9.15579 53.7647 9.15579C53.0007 9.15579 52.3422 9.42265 51.7835 9.95922C51.2247 10.4958 50.9482 11.1885 50.9482 12.0431C50.9482 12.8976 51.2276 13.5903 51.7835 14.1269C52.3394 14.6634 53.0007 14.9275 53.7647 14.9275C54.5743 14.9275 55.2499 14.6578 55.7916 14.1212C56.1422 13.7692 56.3446 13.2837 56.3988 12.6591H53.7647V11.7904H57.2797C57.3167 11.9778 57.3338 12.1595 57.3338 12.3355Z" fill="#010202"/>
<path d="M57.3338 12.3355C57.3338 13.3462 57.0345 14.1468 56.433 14.7486C55.7488 15.4612 54.8622 15.8161 53.7676 15.8161C52.7213 15.8161 51.8291 15.4555 51.0993 14.7316C50.3638 14.0105 49.9989 13.1105 49.9989 12.0431C49.9989 10.9728 50.3638 10.0756 51.0993 9.35452C51.8291 8.63341 52.7213 8.27002 53.7676 8.27002C54.2864 8.27002 54.7853 8.37222 55.2556 8.57095C55.7289 8.77252 56.108 9.04223 56.3902 9.37723L55.7517 10.0132C55.2728 9.44252 54.6114 9.15579 53.7647 9.15579C53.0007 9.15579 52.3422 9.42265 51.7835 9.95922C51.2247 10.4958 50.9482 11.1885 50.9482 12.0431C50.9482 12.8976 51.2276 13.5903 51.7835 14.1269C52.3394 14.6634 53.0007 14.9275 53.7647 14.9275C54.5743 14.9275 55.2499 14.6578 55.7916 14.1212C56.1422 13.7692 56.3446 13.2837 56.3988 12.6591H53.7647V11.7904H57.2797C57.3167 11.9778 57.3338 12.1595 57.3338 12.3355Z" fill="#283350" stroke="#283350" stroke-width="0.2"/>
<path fill-rule="evenodd" clip-rule="evenodd" d="M62.907 9.3179H59.603V11.609H62.5792V12.4777H59.603V14.7688H62.907V15.6574H58.6708V8.43213H62.907V9.3179Z" fill="#010202"/>
<path d="M62.907 9.3179H59.603V11.609H62.5792V12.4777H59.603V14.7688H62.907V15.6574H58.6708V8.43213H62.907V9.3179Z" fill="#283350" stroke="#283350" stroke-width="0.2"/>
<path fill-rule="evenodd" clip-rule="evenodd" d="M66.8353 15.6544H65.9031V9.31781H63.8762V8.4292H68.8621V9.31781H66.8353V15.6544Z" fill="#010202"/>
<path d="M66.8353 15.6544H65.9031V9.31781H63.8762V8.4292H68.8621V9.31781H66.8353V15.6544Z" fill="#283350" stroke="#283350" stroke-width="0.2"/>
<path fill-rule="evenodd" clip-rule="evenodd" d="M72.4684 15.6544H73.4006V8.4292H72.4684V15.6544Z" fill="#010202"/>
<path d="M72.4684 15.6544H73.4006V8.4292H72.4684V15.6544Z" fill="#283350" stroke="#283350" stroke-width="0.2"/>
<path fill-rule="evenodd" clip-rule="evenodd" d="M77.5369 15.6544H76.6048V9.31781H74.5779V8.4292H79.5638V9.31781H77.5369V15.6544Z" fill="#010202"/>
<path d="M77.5369 15.6544H76.6048V9.31781H74.5779V8.4292H79.5638V9.31781H77.5369V15.6544Z" fill="#283350" stroke="#283350" stroke-width="0.2"/>
<path fill-rule="evenodd" clip-rule="evenodd" d="M84.3672 14.1154C84.9032 14.6577 85.5617 14.9274 86.34 14.9274C87.1154 14.9274 87.771 14.6577 88.3098 14.1154C88.8457 13.5732 89.1166 12.8833 89.1166 12.043C89.1166 11.2026 88.8457 10.5099 88.3098 9.97049C87.7739 9.42824 87.1154 9.15854 86.34 9.15854C85.5617 9.15854 84.906 9.43108 84.3701 9.97049C83.8342 10.5099 83.5633 11.2026 83.5633 12.043C83.5633 12.8833 83.8313 13.5732 84.3672 14.1154ZM88.9997 14.7201C88.2841 15.4526 87.4004 15.816 86.34 15.816C85.2795 15.816 84.3929 15.4526 83.6802 14.7201C82.9675 13.9905 82.6112 13.0991 82.6112 12.043C82.6112 10.9869 82.9675 10.0926 83.6802 9.36295C84.3929 8.63333 85.2766 8.26709 86.3371 8.26709C87.3919 8.26709 88.2756 8.63332 88.9911 9.36578C89.7067 10.0982 90.063 10.9897 90.063 12.0401C90.0687 13.0991 89.7124 13.9905 88.9997 14.7201Z" fill="#010202"/>
<path d="M84.3672 14.1154C84.9032 14.6577 85.5617 14.9274 86.34 14.9274C87.1154 14.9274 87.771 14.6577 88.3098 14.1154C88.8457 13.5732 89.1166 12.8833 89.1166 12.043C89.1166 11.2026 88.8457 10.5099 88.3098 9.97049C87.7739 9.42824 87.1154 9.15854 86.34 9.15854C85.5617 9.15854 84.906 9.43108 84.3701 9.97049C83.8342 10.5099 83.5633 11.2026 83.5633 12.043C83.5633 12.8833 83.8313 13.5732 84.3672 14.1154ZM88.9997 14.7201C88.2841 15.4526 87.4004 15.816 86.34 15.816C85.2795 15.816 84.3929 15.4526 83.6802 14.7201C82.9675 13.9905 82.6112 13.0991 82.6112 12.043C82.6112 10.9869 82.9675 10.0926 83.6802 9.36295C84.3929 8.63333 85.2766 8.26709 86.3371 8.26709C87.3919 8.26709 88.2756 8.63332 88.9911 9.36578C89.7067 10.0982 90.063 10.9897 90.063 12.0401C90.0687 13.0991 89.7124 13.9905 88.9997 14.7201Z" fill="#283350" stroke="#283350" stroke-width="0.2"/>
<path fill-rule="evenodd" clip-rule="evenodd" d="M91.3772 15.6544V8.4292H92.5118L96.0381 14.0476H96.078L96.0381 12.6565V8.4292H96.9732V15.6544H95.9982L92.3094 9.76069H92.2695L92.3094 11.1546V15.6544H91.3772Z" fill="#010202"/>
<path d="M91.3772 15.6544V8.4292H92.5118L96.0381 14.0476H96.078L96.0381 12.6565V8.4292H96.9732V15.6544H95.9982L92.3094 9.76069H92.2695L92.3094 11.1546V15.6544H91.3772Z" fill="#283350" stroke="#283350" stroke-width="0.2"/>
<path d="M128.554 21.7158H126.299V36.7682H128.554V21.7158Z" fill="#283350"/>
<path fill-rule="evenodd" clip-rule="evenodd" d="M146.619 27.1382L144.033 33.665H143.953L141.271 27.1382H138.839L142.864 36.257L140.569 41.3332H142.921L149.124 27.1382H146.619Z" fill="#283350"/>
<path fill-rule="evenodd" clip-rule="evenodd" d="M134.095 26.8086C132.462 26.8086 130.771 27.524 130.07 29.1139L132.071 29.9457C132.499 29.1139 133.297 28.8413 134.132 28.8413C135.298 28.8413 136.484 29.5397 136.504 30.7775V30.9337C136.094 30.7009 135.221 30.3545 134.152 30.3545C131.992 30.3545 129.797 31.5355 129.797 33.7414C129.797 35.7571 131.567 37.0545 133.551 37.0545C135.065 37.0545 135.903 36.376 136.427 35.5811H136.504V36.7423H138.682V30.9706C138.685 28.2991 136.681 26.8086 134.095 26.8086Z" fill="#283350"/>
<path fill-rule="evenodd" clip-rule="evenodd" d="M120.095 21.7158H114.69V36.7682H116.945V31.0647H120.095C122.596 31.0647 125.053 29.2619 125.053 26.3888C125.053 23.5186 122.596 21.7158 120.095 21.7158Z" fill="#283350"/>
<path fill-rule="evenodd" clip-rule="evenodd" d="M93.2045 27.9785H93.1275C92.6201 27.3766 91.6452 26.8315 90.4222 26.8315C87.8508 26.8315 85.4933 29.0829 85.4933 31.973C85.4933 34.8432 87.8508 37.0747 90.4222 37.0747C91.648 37.0747 92.623 36.5324 93.1275 35.9135H93.2045V36.6488C93.2045 38.6077 92.1526 39.6553 90.4593 39.6553C89.0767 39.6553 88.2186 38.6673 87.8679 37.8327L85.9009 38.6475C86.4654 40.0045 87.9649 41.6738 90.4593 41.6738C93.1104 41.6738 95.3483 40.1209 95.3483 36.3394V27.1438H93.2045V27.9785Z" fill="#283350"/>
<path fill-rule="evenodd" clip-rule="evenodd" d="M96.9077 36.7682H99.1683V21.7158H96.9077V36.7682Z" fill="#283350"/>
<path fill-rule="evenodd" clip-rule="evenodd" d="M109.511 30.0936C109.083 28.9495 107.778 26.8345 105.109 26.8345C102.461 26.8345 100.26 28.9126 100.26 31.956C100.26 34.8263 102.441 37.0776 105.363 37.0776C107.72 37.0776 109.083 35.6411 109.65 34.8064L107.897 33.6424C107.31 34.4969 106.515 35.0591 105.363 35.0591C104.214 35.0591 103.396 34.5338 102.871 33.5061L109.747 30.6728L109.511 30.0936Z" fill="#283350"/>
<path fill-rule="evenodd" clip-rule="evenodd" d="M54.7311 28.4069V30.5788H59.9536C59.7968 31.8024 59.3863 32.6938 58.7649 33.3127C58.0037 34.0707 56.815 34.9026 54.7311 34.9026C51.5155 34.9026 49.004 32.3219 49.004 29.1224C49.004 25.9228 51.5183 23.3422 54.7311 23.3422C56.4643 23.3422 57.7301 24.0207 58.6651 24.8922L60.2045 23.3592C58.8989 22.1185 57.1656 21.1675 54.7311 21.1675C50.3296 21.1675 46.6293 24.7389 46.6293 29.1224C46.6293 33.5058 50.3296 37.0744 54.7311 37.0744C57.1086 37.0744 58.8989 36.2994 60.3014 34.8429C61.741 33.4064 62.1915 31.3907 62.1915 29.7611C62.1915 29.2586 62.1544 28.793 62.0746 28.4041L54.7311 28.4069Z" fill="#283350"/>
<path fill-rule="evenodd" clip-rule="evenodd" d="M26.9708 24.0805L12.3266 9.5249C12.1584 9.86274 12.0586 10.2772 12.0586 10.7797V37.3869C12.0586 37.895 12.1612 38.318 12.3351 38.6559L26.9708 24.0805Z" fill="#283350"/>
<path fill-rule="evenodd" clip-rule="evenodd" d="M12.3693 9.43229C12.3751 9.41776 12.3839 9.40613 12.3926 9.3916C12.3839 9.40613 12.378 9.42067 12.3693 9.43229Z" fill="#283350"/>
<path fill-rule="evenodd" clip-rule="evenodd" d="M27.8174 23.2373L32.3272 18.746L15.1316 9.01673C14.6442 8.7385 14.1852 8.60791 13.7747 8.60791C13.5666 8.60791 13.3756 8.64481 13.1989 8.71011L27.8174 23.2373Z" fill="#283350"/>
<path fill-rule="evenodd" clip-rule="evenodd" d="M38.6872 22.3456L33.4162 19.3618L28.6726 24.0859L33.4162 28.7986L38.6872 25.8149C40.3748 24.8638 40.3748 23.2995 38.6872 22.3456Z" fill="#283350"/>
<path fill-rule="evenodd" clip-rule="evenodd" d="M27.8288 24.9321L13.2416 39.465C13.7633 39.641 14.4161 39.5558 15.1316 39.1527L32.3386 29.4121L27.8288 24.9321Z" fill="#283350"/>
<path fill-rule="evenodd" clip-rule="evenodd" d="M12.355 38.7012C12.4235 38.8261 12.5004 38.9396 12.5888 39.0362C12.5004 38.934 12.4178 38.8261 12.355 38.7012Z" fill="#283350"/>
<path d="M68.1238 28.853C66.5673 28.853 65.2218 30.1135 65.2218 31.9561C65.2218 33.7787 66.5645 35.0619 68.1238 35.0619C69.6832 35.0619 71.0259 33.7815 71.0259 31.9561C71.0259 30.1135 69.6832 28.853 68.1238 28.853Z" fill="white"/>
<path d="M82.2863 31.9561C82.2863 30.1135 80.9436 28.853 79.3842 28.853C77.8277 28.853 76.4822 30.1135 76.4822 31.9561C76.4822 33.7787 77.8249 35.0619 79.3842 35.0619C80.9436 35.0619 82.2863 33.7787 82.2863 31.9561Z" fill="white"/>
<path fill-rule="evenodd" clip-rule="evenodd" d="M90.6161 35.062C89.0596 35.062 87.754 33.7617 87.754 31.9789C87.754 30.1733 89.0596 28.856 90.619 28.856C92.1555 28.856 93.3642 30.1761 93.3642 31.9789C93.3614 33.7617 92.1526 35.0592 90.6161 35.062Z" fill="#FBFBFB"/>
<path fill-rule="evenodd" clip-rule="evenodd" d="M120.152 28.9695H116.943V23.811H120.152C121.84 23.811 122.798 25.2022 122.798 26.3889C122.795 27.5557 121.837 28.9695 120.152 28.9695Z" fill="white"/>
<path fill-rule="evenodd" clip-rule="evenodd" d="M102.498 31.8025C102.441 29.8238 104.037 28.8159 105.189 28.8159C106.084 28.8159 106.845 29.2645 107.096 29.9033L102.498 31.8025Z" fill="white"/>
<path fill-rule="evenodd" clip-rule="evenodd" d="M133.822 35.0587C133.083 35.0587 132.051 34.6897 132.051 33.7812C132.051 32.62 133.334 32.1743 134.443 32.1743C135.432 32.1743 135.903 32.3872 136.504 32.6768C136.33 34.0708 135.124 35.0587 133.822 35.0587Z" fill="#FBFBFB"/>
</svg>
