<svg width="151" height="38" viewBox="0 0 151 38" fill="none" xmlns="http://www.w3.org/2000/svg">
<path d="M1 37.0002C0.447715 37.0002 0 36.5525 0 36.0002V11.0542C0 10.5019 0.447715 10.0542 1 10.0542H4.58C5.13228 10.0542 5.58 10.5019 5.58 11.0542V20.3142C6.276 19.6302 7.062 19.0842 7.938 18.6762C8.826 18.2562 9.864 18.0462 11.052 18.0462C12.024 18.0462 12.924 18.2562 13.752 18.6762C14.58 19.0962 15.294 19.7142 15.894 20.5302C16.494 21.3342 16.962 22.3242 17.298 23.5002C17.646 24.6762 17.82 26.0142 17.82 27.5142C17.82 28.9182 17.622 30.2142 17.226 31.4022C16.842 32.5902 16.296 33.6222 15.588 34.4982C14.892 35.3742 14.052 36.0582 13.068 36.5502C12.096 37.0422 11.016 37.2882 9.828 37.2882C9.276 37.2882 8.778 37.2342 8.334 37.1262C7.902 37.0182 7.5 36.8682 7.128 36.6762C6.768 36.4722 6.432 36.2322 6.12 35.9562C5.82 35.6802 5.526 35.3802 5.238 35.0562L5.04 35.9922C4.956 36.3762 4.8 36.6402 4.572 36.7842C4.356 36.9282 4.068 37.0002 3.708 37.0002H1ZM9.108 22.2402C8.7 22.2402 8.328 22.2822 7.992 22.3662C7.668 22.4382 7.362 22.5462 7.074 22.6902C6.798 22.8342 6.54 23.0202 6.3 23.2482C6.06 23.4642 5.82 23.7162 5.58 24.0042V31.9242C6 32.3922 6.456 32.7222 6.948 32.9142C7.44 33.0942 7.956 33.1842 8.496 33.1842C9.012 33.1842 9.486 33.0822 9.918 32.8782C10.35 32.6742 10.722 32.3502 11.034 31.9062C11.358 31.4502 11.61 30.8622 11.79 30.1422C11.97 29.4222 12.06 28.5462 12.06 27.5142C12.06 26.5302 11.988 25.7022 11.844 25.0302C11.7 24.3582 11.496 23.8182 11.232 23.4102C10.98 22.9902 10.674 22.6902 10.314 22.5102C9.954 22.3302 9.552 22.2402 9.108 22.2402Z" fill="#D23B38"/>
<path d="M25.1028 18.3342C25.6551 18.3342 26.1028 18.7819 26.1028 19.3342V30.1782C26.1028 31.1022 26.3128 31.8162 26.7328 32.3202C27.1528 32.8242 27.7708 33.0762 28.5868 33.0762C29.1988 33.0762 29.7688 32.9502 30.2968 32.6982C30.8368 32.4462 31.3588 32.0922 31.8628 31.6362V19.3342C31.8628 18.7819 32.3105 18.3342 32.8628 18.3342H36.4428C36.9951 18.3342 37.4428 18.7819 37.4428 19.3342V36.0002C37.4428 36.5525 36.9951 37.0002 36.4428 37.0002H33.9868C33.2908 37.0002 32.8348 36.6882 32.6188 36.0642L32.2768 34.9842C31.9168 35.3322 31.5448 35.6502 31.1608 35.9382C30.7768 36.2142 30.3628 36.4542 29.9188 36.6582C29.4868 36.8502 29.0188 37.0002 28.5148 37.1082C28.0108 37.2282 27.4588 37.2882 26.8588 37.2882C25.8388 37.2882 24.9328 37.1142 24.1408 36.7662C23.3608 36.4062 22.7008 35.9082 22.1608 35.2722C21.6208 34.6362 21.2128 33.8862 20.9368 33.0222C20.6608 32.1582 20.5228 31.2102 20.5228 30.1782V19.3342C20.5228 18.7819 20.9705 18.3342 21.5228 18.3342H25.1028Z" fill="#D23B38"/>
<path d="M53.1776 22.4202C53.0336 22.6482 52.8776 22.8102 52.7096 22.9062C52.5536 23.0022 52.3496 23.0502 52.0976 23.0502C51.8336 23.0502 51.5696 22.9962 51.3056 22.8882C51.0416 22.7682 50.7536 22.6422 50.4416 22.5102C50.1416 22.3782 49.7996 22.2582 49.4156 22.1502C49.0316 22.0302 48.5936 21.9702 48.1016 21.9702C47.3936 21.9702 46.8476 22.1082 46.4636 22.3842C46.0916 22.6482 45.9056 23.0202 45.9056 23.5002C45.9056 23.8482 46.0256 24.1362 46.2656 24.3642C46.5176 24.5922 46.8476 24.7962 47.2556 24.9762C47.6636 25.1442 48.1256 25.3062 48.6416 25.4622C49.1576 25.6182 49.6856 25.7922 50.2256 25.9842C50.7656 26.1762 51.2936 26.4042 51.8096 26.6682C52.3256 26.9202 52.7876 27.2382 53.1956 27.6222C53.6036 27.9942 53.9276 28.4502 54.1676 28.9902C54.4196 29.5302 54.5456 30.1782 54.5456 30.9342C54.5456 31.8582 54.3776 32.7102 54.0416 33.4902C53.7056 34.2702 53.2016 34.9422 52.5296 35.5062C51.8696 36.0702 51.0476 36.5082 50.0636 36.8202C49.0916 37.1322 47.9696 37.2882 46.6976 37.2882C46.0616 37.2882 45.4256 37.2282 44.7896 37.1082C44.1536 36.9882 43.5356 36.8262 42.9356 36.6222C42.3476 36.4182 41.8016 36.1782 41.2976 35.9022C41.0721 35.7733 40.8611 35.6409 40.6644 35.5048C40.2637 35.2276 40.1918 34.683 40.452 34.2711L41.2976 32.9322C41.4536 32.6922 41.6396 32.5062 41.8556 32.3742C42.0716 32.2302 42.3536 32.1582 42.7016 32.1582C43.0256 32.1582 43.3136 32.2302 43.5656 32.3742C43.8296 32.5182 44.1116 32.6742 44.4116 32.8422C44.7116 33.0102 45.0596 33.1662 45.4556 33.3102C45.8636 33.4542 46.3736 33.5262 46.9856 33.5262C47.4176 33.5262 47.7836 33.4842 48.0836 33.4002C48.3836 33.3042 48.6236 33.1782 48.8036 33.0222C48.9836 32.8662 49.1156 32.6922 49.1996 32.5002C49.2836 32.3082 49.3256 32.1102 49.3256 31.9062C49.3256 31.5342 49.1996 31.2282 48.9476 30.9882C48.6956 30.7482 48.3656 30.5442 47.9576 30.3762C47.5496 30.1962 47.0816 30.0342 46.5536 29.8902C46.0376 29.7342 45.5096 29.5602 44.9696 29.3682C44.4296 29.1762 43.8956 28.9482 43.3676 28.6842C42.8516 28.4082 42.3896 28.0662 41.9816 27.6582C41.5736 27.2382 41.2436 26.7282 40.9916 26.1282C40.7396 25.5282 40.6136 24.8022 40.6136 23.9502C40.6136 23.1582 40.7636 22.4082 41.0636 21.7002C41.3756 20.9802 41.8376 20.3502 42.4496 19.8102C43.0616 19.2702 43.8296 18.8442 44.7536 18.5322C45.6776 18.2082 46.7576 18.0462 47.9936 18.0462C48.6656 18.0462 49.3136 18.1062 49.9376 18.2262C50.5736 18.3462 51.1676 18.5142 51.7196 18.7302C52.2716 18.9462 52.7756 19.2042 53.2316 19.5042C53.444 19.6383 53.6446 19.7789 53.8335 19.926C54.2045 20.215 54.2564 20.7404 54.0023 21.136L53.1776 22.4202Z" fill="#D23B38"/>
<path d="M62.3811 10.0542C62.9334 10.0542 63.3811 10.5019 63.3811 11.0542V36.0002C63.3811 36.5525 62.9334 37.0002 62.3811 37.0002H58.8011C58.2488 37.0002 57.8011 36.5525 57.8011 36.0002V11.0542C57.8011 10.5019 58.2488 10.0542 58.8011 10.0542H62.3811Z" fill="#D23B38"/>
<path d="M72.6467 15.0001C73.199 15.0001 73.6467 15.4478 73.6467 16.0001V36.0002C73.6467 36.5525 73.199 37.0002 72.6467 37.0002H69.0667C68.5144 37.0002 68.0667 36.5525 68.0667 36.0002V16.0001C68.0667 15.4478 68.5144 15.0001 69.0667 15.0001H72.6467Z" fill="#D23B38"/>
<path d="M79.1523 37.0002C78.6001 37.0002 78.1523 36.5525 78.1523 36.0002V19.3342C78.1523 18.7819 78.6001 18.3342 79.1523 18.3342H81.6083C81.9563 18.3342 82.2443 18.4122 82.4723 18.5682C82.635 18.6739 82.7646 18.8155 82.8611 18.9929C82.9564 19.1681 82.9763 19.3716 82.9763 19.5709V20.5001C83.3363 20.1641 84.0323 19.7022 84.4163 19.4142C84.8003 19.1262 85.2083 18.8862 85.6403 18.6942C86.0843 18.4902 86.5583 18.3342 87.0623 18.2262C87.5783 18.1062 88.1363 18.0462 88.7363 18.0462C89.7563 18.0462 90.6563 18.2262 91.4363 18.5862C92.2283 18.9342 92.8943 19.4262 93.4343 20.0622C93.9743 20.6862 94.3823 21.4362 94.6583 22.3122C94.9343 23.1762 95.0723 24.1182 95.0723 25.1382V36.0002C95.0723 36.5525 94.6246 37.0002 94.0723 37.0002H90.4923C89.9401 37.0002 89.4923 36.5525 89.4923 36.0002V25.1382C89.4923 24.2262 89.2823 23.5182 88.8623 23.0142C88.4423 22.4982 87.8243 22.2402 87.0083 22.2402C86.3963 22.2402 85.8203 22.3722 85.2803 22.6362C84.7403 22.9002 84.2243 23.2542 83.7323 23.6982V36.0002C83.7323 36.5525 83.2846 37.0002 82.7323 37.0002H79.1523Z" fill="#D23B38"/>
<path d="M103.615 10.0542C104.167 10.0542 104.615 10.5019 104.615 11.0542V25.1562H105.443C105.791 25.1562 106.055 25.1082 106.235 25.0122C106.427 24.9162 106.607 24.7422 106.775 24.4902L110.303 19.2342C110.507 18.9222 110.747 18.6942 111.023 18.5502C111.311 18.4062 111.671 18.3342 112.103 18.3342H115.253C116.07 18.3342 116.542 19.2608 116.062 19.9218L112.391 24.9762C112.163 25.2882 111.911 25.5642 111.635 25.8042C111.371 26.0442 111.083 26.2602 110.771 26.4522C111.311 26.8602 111.779 27.4002 112.175 28.0722L116.544 35.4929C116.936 36.1595 116.456 37.0002 115.682 37.0002H112.391C111.971 37.0002 111.605 36.9342 111.293 36.8022C110.993 36.6582 110.747 36.4122 110.555 36.0642L107.027 29.4582C106.859 29.1582 106.685 28.9662 106.505 28.8822C106.325 28.7862 106.055 28.7382 105.695 28.7382H104.615V36.0002C104.615 36.5525 104.167 37.0002 103.615 37.0002H100.035C99.4829 37.0002 99.0352 36.5525 99.0352 36.0002V11.0542C99.0352 10.5019 99.4829 10.0542 100.035 10.0542H103.615Z" fill="#D23B38"/>
<path d="M126.679 18.0462C127.915 18.0462 129.044 18.2382 130.064 18.6222C131.096 19.0062 131.978 19.5642 132.71 20.2962C133.454 21.0282 134.029 21.9282 134.438 22.9962C134.858 24.0522 135.068 25.2522 135.068 26.5962C135.068 27.0162 135.05 27.3582 135.014 27.6222C134.978 27.8862 134.912 28.0962 134.816 28.2522C134.72 28.4082 134.587 28.5162 134.419 28.5762C134.263 28.6362 134.059 28.6662 133.807 28.6662H123.044C123.224 30.2262 123.697 31.3602 124.465 32.0682C125.233 32.7642 126.224 33.1122 127.436 33.1122C128.084 33.1122 128.641 33.0342 129.109 32.8782C129.577 32.7222 129.992 32.5482 130.352 32.3562C130.724 32.1642 131.059 31.9902 131.359 31.8342C131.671 31.6782 131.995 31.6002 132.331 31.6002C132.775 31.6002 133.111 31.7622 133.339 32.0862L134.43 33.4307C134.736 33.8084 134.73 34.3567 134.379 34.693C133.97 35.0844 133.54 35.4215 133.087 35.7042C132.427 36.1122 131.744 36.4362 131.036 36.6762C130.34 36.9042 129.638 37.0602 128.93 37.1442C128.234 37.2402 127.568 37.2882 126.932 37.2882C125.624 37.2882 124.394 37.0782 123.242 36.6582C122.102 36.2262 121.099 35.5902 120.235 34.7502C119.383 33.9102 118.705 32.8662 118.201 31.6182C117.709 30.3702 117.464 28.9182 117.464 27.2622C117.464 26.0142 117.673 24.8322 118.093 23.7162C118.525 22.6002 119.137 21.6222 119.929 20.7822C120.733 19.9422 121.699 19.2762 122.827 18.7842C123.967 18.2922 125.251 18.0462 126.679 18.0462ZM126.787 21.8982C125.719 21.8982 124.885 22.2042 124.285 22.8162C123.685 23.4162 123.29 24.2862 123.098 25.4262H130.064C130.064 24.9822 130.003 24.5502 129.883 24.1302C129.775 23.7102 129.59 23.3382 129.326 23.0142C129.074 22.6782 128.738 22.4082 128.318 22.2042C127.898 22.0002 127.387 21.8982 126.787 21.8982Z" fill="#D23B38"/>
<path d="M139.27 37.0002C138.717 37.0002 138.27 36.5525 138.27 36.0002V19.3342C138.27 18.7819 138.717 18.3342 139.27 18.3342H141.582C141.858 18.3342 142.086 18.3582 142.266 18.4062C142.458 18.4542 142.614 18.5322 142.734 18.6402C142.866 18.7362 142.962 18.8682 143.022 19.0362C143.094 19.2042 143.154 19.4082 143.202 19.6482L143.508 21.3942C144.192 20.3382 144.96 19.5042 145.812 18.8922C146.664 18.2802 147.594 17.9742 148.602 17.9742C149.199 17.9742 149.714 18.0746 150.146 18.2753C150.48 18.43 150.614 18.8117 150.55 19.1736L149.934 22.6902C149.886 22.9422 149.79 23.1222 149.646 23.2302C149.502 23.3262 149.31 23.3742 149.07 23.3742C148.866 23.3742 148.626 23.3502 148.35 23.3022C148.074 23.2422 147.726 23.2122 147.306 23.2122C145.842 23.2122 144.69 23.9922 143.85 25.5522V36.0002C143.85 36.5525 143.402 37.0002 142.85 37.0002H139.27Z" fill="#D23B38"/>
<circle cx="70.84" cy="6" r="3" fill="#D23B38"/>
<circle cx="70.84" cy="6" r="5.5" stroke="#D23B38"/>
</svg>
