<svg width="80" height="80" viewBox="0 0 80 80" fill="none" xmlns="http://www.w3.org/2000/svg">
<path d="M38.6136 46.5049C38.1862 46.5049 37.7764 46.6762 37.4743 46.9812C37.1721 47.2862 37.0023 47.6998 37.0023 48.1311C37.0023 48.5624 37.1721 48.976 37.4743 49.281C37.7764 49.586 38.1862 49.7573 38.6136 49.7573H45.0585C45.4859 49.7573 45.8957 49.586 46.1979 49.281C46.5 48.976 46.6698 48.5624 46.6698 48.1311C46.6698 47.6998 46.5 47.2862 46.1979 46.9812C45.8957 46.6762 45.4859 46.5049 45.0585 46.5049H38.6136ZM8 31.8688C8 29.7123 8.84878 27.6441 10.3596 26.1192C11.8704 24.5943 13.9196 23.7377 16.0562 23.7377H45.0585C47.1952 23.7377 49.2443 24.5943 50.7551 26.1192C52.266 27.6441 53.1147 29.7123 53.1147 31.8688V48.1311C53.1147 50.2876 52.266 52.3558 50.7551 53.8807C49.2443 55.4056 47.1952 56.2623 45.0585 56.2623H16.0562C13.9196 56.2623 11.8704 55.4056 10.3596 53.8807C8.84878 52.3558 8 50.2876 8 48.1311V31.8688ZM49.8923 33.495V31.8688C49.8923 30.5749 49.383 29.334 48.4765 28.4191C47.57 27.5041 46.3405 26.9901 45.0585 26.9901H16.0562C14.7742 26.9901 13.5447 27.5041 12.6382 28.4191C11.7317 29.334 11.2225 30.5749 11.2225 31.8688V33.495H49.8923ZM11.2225 36.7475V48.1311C11.2225 49.425 11.7317 50.6659 12.6382 51.5809C13.5447 52.4958 14.7742 53.0098 16.0562 53.0098H45.0585C46.3405 53.0098 47.57 52.4958 48.4765 51.5809C49.383 50.6659 49.8923 49.425 49.8923 48.1311V36.7475H11.2225Z" fill="#283350"/>
<path d="M71.8978 39.7339C71.7072 39.7306 69.596 39.6599 67.4168 38.8116C65.2614 37.9734 63.8381 37.0174 63.6644 36.8962L63.6032 36.8524L63.5453 36.8928C63.484 36.9366 62.0266 37.9364 59.7895 38.8082C57.6137 39.6565 55.4991 39.7272 55.3085 39.7306C55.2558 39.7306 55.2131 39.7733 55.2131 39.8259V47.8567C55.2131 49.6509 56.3606 51.7279 58.3594 53.5591C60.1266 55.1749 62.2343 56.2622 63.6066 56.2622C64.9788 56.2622 67.0865 55.1749 68.8537 53.5591C70.8525 51.7313 72 49.6509 72 47.8567L71.9966 39.7306L71.8978 39.7339ZM68.7482 44.3423L63.2422 49.6206C63.0447 49.8091 62.7757 49.9169 62.4965 49.9169C62.2173 49.9169 61.9483 49.8091 61.7508 49.6206L58.9995 46.9815C58.5875 46.5876 58.5875 45.9447 58.9995 45.5475C59.4115 45.1502 60.0823 45.1536 60.4943 45.5475L62.4999 47.4696L67.2568 42.9083C67.6688 42.5145 68.3396 42.5145 68.7516 42.9083C69.1602 43.3055 69.1602 43.9485 68.7482 44.3423Z" fill="#D23B38"/>
</svg>
