<svg width="18" height="31" viewBox="0 0 18 31" fill="none" xmlns="http://www.w3.org/2000/svg">
<path d="M3.56681 30.3865L17.5438 16.6451C17.7097 16.4815 17.8274 16.3043 17.8971 16.1135C17.9668 15.9226 18.0011 15.7181 18 15.5C18 15.2819 17.9651 15.0774 17.8955 14.8865C17.8258 14.6957 17.7085 14.5185 17.5438 14.3549L3.56681 0.572559C3.17972 0.190853 2.69585 0 2.1152 0C1.53456 0 1.03687 0.204485 0.622118 0.613456C0.207373 1.02243 0 1.49956 0 2.04485C0 2.59015 0.207373 3.06728 0.622118 3.47625L12.8156 15.5L0.622118 27.5237C0.235022 27.9055 0.0414734 28.376 0.0414734 28.9355C0.0414734 29.495 0.248846 29.9787 0.663593 30.3865C1.07834 30.7955 1.56221 31 2.1152 31C2.6682 31 3.15207 30.7955 3.56681 30.3865Z" fill="#D23B38"/>
</svg>
