<svg width="48" height="49" viewBox="0 0 48 49" fill="none" xmlns="http://www.w3.org/2000/svg">
<path d="M40.2469 6.95127C39.7268 6.97421 39.2422 7.12571 38.8156 7.29814C38.416 7.45889 36.8892 8.11373 34.4844 9.14502C32.0774 10.1772 28.8904 11.5455 25.4906 13.0075C18.6911 15.9315 11.0467 19.2229 7.13124 20.9075C6.984 20.9708 6.47026 21.135 5.92499 21.5606C5.37971 21.9863 4.79999 22.8684 4.79999 23.8513C4.79999 24.6438 5.1777 25.4312 5.65311 25.9013C6.12853 26.3714 6.63158 26.6036 7.06249 26.7794C8.62595 27.4173 13.4749 29.4016 14.3906 29.7763C14.7129 30.7634 16.468 36.1323 16.875 37.4481C17.1433 38.3165 17.3987 38.8603 17.7312 39.2919C17.8975 39.5077 18.0908 39.6968 18.325 39.845C18.4186 39.9043 18.5213 39.9499 18.625 39.9919L18.6312 39.995C18.6551 40.0046 18.6757 40.0209 18.7 40.0294C18.7457 40.0454 18.7763 40.0473 18.8375 40.0606C19.0812 40.1394 19.3273 40.1888 19.5469 40.1888C20.4831 40.1888 21.0562 39.6731 21.0562 39.6731L21.0906 39.6481L25.9062 35.4825L31.7469 41.0075C31.8291 41.1238 32.5961 42.1763 34.2875 42.1763C35.2918 42.1763 36.0885 41.6723 36.6 41.1356C37.1115 40.599 37.4301 40.0352 37.5656 39.3263V39.3231C37.6923 38.6533 43.075 11.02 43.075 11.02L43.0656 11.0575C43.2232 10.3383 43.2645 9.66849 43.0906 9.00752C42.9167 8.34654 42.4586 7.71369 41.8906 7.37314C41.3227 7.03267 40.767 6.92832 40.2469 6.95127ZM39.9469 10.295C39.9392 10.3417 39.9526 10.3182 39.9406 10.3731L39.9375 10.3919L39.9344 10.4106C39.9344 10.4106 34.6184 37.6905 34.4219 38.7294C34.4362 38.6509 34.3705 38.8069 34.3031 38.9013C34.2078 38.8356 34.0125 38.7513 34.0125 38.7513L33.9812 38.7169L26.0031 31.17L20.3625 36.045L22.0406 29.3263C22.0406 29.3263 32.5305 18.4676 33.1625 17.8356C33.6713 17.33 33.7781 17.1538 33.7781 16.9794C33.7781 16.7458 33.6564 16.5763 33.3844 16.5763C33.1396 16.5763 32.8104 16.8143 32.6344 16.9263C30.3414 18.3879 20.2749 24.2549 15.7625 26.8794C15.0454 26.5859 10.0634 24.5466 8.37499 23.8575C8.38777 23.8519 8.38356 23.8539 8.39686 23.8481C12.3134 22.1631 19.9546 18.8717 26.7531 15.9481C30.1524 14.4863 33.3419 13.117 35.7469 12.0856C38.1148 11.0702 39.7602 10.3713 39.9469 10.295Z" fill="#283350"/>
</svg>
