<svg width="29" height="42" viewBox="0 0 29 42" fill="none" xmlns="http://www.w3.org/2000/svg">
<g clip-path="url(#clip0_45_377)">
<path d="M14.4991 0C6.47645 0 0 6.37154 0 14.2319C0 16.7031 0.642092 19.0294 1.76836 21.0554L14.4991 42.0017L27.2299 21.0554C28.3562 19.0294 28.9983 16.7048 28.9983 14.2319C29 6.37154 22.5235 0 14.5009 0H14.4991Z" fill="#D23B38"/>
<path d="M14.5008 24.2123C20.2064 24.2123 24.8316 19.6668 24.8316 14.0597C24.8316 8.45266 20.2064 3.90723 14.5008 3.90723C8.79533 3.90723 4.1701 8.45266 4.1701 14.0597C4.1701 19.6668 8.79533 24.2123 14.5008 24.2123Z" fill="white"/>
<path d="M18.1261 7.28564H10.8739C9.80912 7.28564 8.94592 8.13395 8.94592 9.18039V16.3075C8.94592 17.3539 9.80912 18.2022 10.8739 18.2022H18.1261C19.1909 18.2022 20.0541 17.3539 20.0541 16.3075V9.18039C20.0541 8.13395 19.1909 7.28564 18.1261 7.28564Z" fill="#304C5F"/>
<path d="M12.2119 15.9698H12.2102C11.5709 15.9698 11.0527 16.4791 11.0527 17.1074V19.2767C11.0527 19.9049 11.5709 20.4142 12.2102 20.4142H12.2119C12.8512 20.4142 13.3694 19.9049 13.3694 19.2767V17.1074C13.3694 16.4791 12.8512 15.9698 12.2119 15.9698Z" fill="#304C5F"/>
<path d="M16.7899 15.9698H16.7881C16.1488 15.9698 15.6306 16.4791 15.6306 17.1074V19.2767C15.6306 19.9049 16.1488 20.4142 16.7881 20.4142H16.7899C17.4291 20.4142 17.9474 19.9049 17.9474 19.2767V17.1074C17.9474 16.4791 17.4291 15.9698 16.7899 15.9698Z" fill="#304C5F"/>
<path d="M16.8992 8.70288H12.1026C11.0771 8.70288 10.2457 9.51988 10.2457 10.5277V12.2332C10.2457 13.241 11.0771 14.058 12.1026 14.058H16.8992C17.9247 14.058 18.756 13.241 18.756 12.2332V10.5277C18.756 9.51988 17.9247 8.70288 16.8992 8.70288Z" fill="white"/>
<path d="M12.6631 15.3558H11.1412C10.6466 15.3558 10.2457 15.7498 10.2457 16.2358V16.2375C10.2457 16.7236 10.6466 17.1176 11.1412 17.1176H12.6631C13.1577 17.1176 13.5586 16.7236 13.5586 16.2375V16.2358C13.5586 15.7498 13.1577 15.3558 12.6631 15.3558Z" fill="white"/>
<path d="M17.8606 15.3558H16.3386C15.8441 15.3558 15.4432 15.7498 15.4432 16.2358V16.2375C15.4432 16.7236 15.8441 17.1176 16.3386 17.1176H17.8606C18.3551 17.1176 18.756 16.7236 18.756 16.2375V16.2358C18.756 15.7498 18.3551 15.3558 17.8606 15.3558Z" fill="white"/>
</g>
<defs>
<clipPath id="clip0_45_377">
<rect width="29" height="42" fill="white"/>
</clipPath>
</defs>
</svg>
