<svg width="120" height="96" viewBox="0 0 120 96" fill="none" xmlns="http://www.w3.org/2000/svg">
<g filter="url(#filter0_d_315_1521)">
<rect x="21.3229" y="21.3229" width="77.3542" height="53.3542" rx="14.5521" fill="white" stroke="#D9D9D9" stroke-width="2.64583"/>
<path fill-rule="evenodd" clip-rule="evenodd" d="M44.2863 57.9361H39.4399L35.8056 43.7824C35.6331 43.1314 35.2668 42.5558 34.7281 42.2845C33.3836 41.6028 31.902 41.0602 30.2857 40.7866V40.2417H38.093C39.1705 40.2417 39.9786 41.0602 40.1133 42.0109L41.9989 52.2204L46.843 40.2417H51.5548L44.2863 57.9361ZM54.2485 57.9361H49.6715L53.4404 40.2417H58.0175L54.2485 57.9361ZM63.9392 45.1434C64.0739 44.1904 64.882 43.6455 65.8248 43.6455C67.3064 43.5087 68.9203 43.7823 70.2672 44.4617L71.0754 40.652C69.7285 40.1071 68.2469 39.8334 66.9023 39.8334C62.46 39.8334 59.2274 42.2844 59.2274 45.686C59.2274 48.2737 61.5171 49.6325 63.1334 50.4511C64.882 51.2672 65.5555 51.8122 65.4208 52.6284C65.4208 53.8527 64.0739 54.3976 62.7293 54.3976C61.1131 54.3976 59.4968 53.9895 58.0176 53.3077L57.2095 57.1198C58.8257 57.7992 60.5743 58.0728 62.1906 58.0728C67.1717 58.2073 70.2672 55.7587 70.2672 52.0834C70.2672 47.4552 63.9392 47.1839 63.9392 45.1434V45.1434ZM86.2857 57.9361L82.6514 40.2417H78.7478C77.9397 40.2417 77.1315 40.7866 76.8622 41.6028L70.1324 57.9361H74.8442L75.7847 55.3507H81.5739L82.1127 57.9361H86.2857ZM79.4212 45.0069L80.7658 51.6756H76.9968L79.4212 45.0069Z" fill="#172B85"/>
</g>
<defs>
<filter id="filter0_d_315_1521" x="0" y="0" width="120" height="96" filterUnits="userSpaceOnUse" color-interpolation-filters="sRGB">
<feFlood flood-opacity="0" result="BackgroundImageFix"/>
<feColorMatrix in="SourceAlpha" type="matrix" values="0 0 0 0 0 0 0 0 0 0 0 0 0 0 0 0 0 0 127 0" result="hardAlpha"/>
<feOffset/>
<feGaussianBlur stdDeviation="10"/>
<feComposite in2="hardAlpha" operator="out"/>
<feColorMatrix type="matrix" values="0 0 0 0 0 0 0 0 0 0 0 0 0 0 0 0 0 0 0.07 0"/>
<feBlend mode="normal" in2="BackgroundImageFix" result="effect1_dropShadow_315_1521"/>
<feBlend mode="normal" in="SourceGraphic" in2="effect1_dropShadow_315_1521" result="shape"/>
</filter>
</defs>
</svg>
