<svg width="120" height="96" viewBox="0 0 120 96" fill="none" xmlns="http://www.w3.org/2000/svg">
<g filter="url(#filter0_d_315_1559)">
<rect x="21.3229" y="21.3229" width="77.3542" height="53.3542" rx="14.5521" fill="#1F72CD" stroke="#D9D9D9" stroke-width="2.64583"/>
<path fill-rule="evenodd" clip-rule="evenodd" d="M34.3421 39.8335L26.8571 56.7426H35.8177L36.9285 54.0466H39.4677L40.5785 56.7426H50.4416V54.6849L51.3204 56.7426H56.4224L57.3012 54.6414V56.7426H77.8137L80.3079 54.1166L82.6434 56.7426L93.179 56.7643L85.6704 48.3352L93.179 39.8335H82.8068L80.3788 42.411L78.1169 39.8335H55.802L53.8858 44.1979L51.9247 39.8335H42.9828V41.8212L41.9881 39.8335H34.3421ZM64.9734 42.2344H76.7526L80.3553 46.2071L84.0741 42.2344H87.6769L82.2029 48.3327L87.6769 54.3606H83.9107L80.308 50.3418L76.5702 54.3606H64.9734V42.2344ZM67.8821 46.9617V44.7467V44.7446H75.232L78.439 48.2869L75.0899 51.8485H67.8821V49.4304H74.3082V46.9617H67.8821ZM36.076 42.2344H40.4438L45.4086 53.7006V42.2344H50.1933L54.028 50.4556L57.5622 42.2344H62.323V54.3678H59.4261L59.4025 44.8602L55.1791 54.3678H52.5878L48.3408 44.8602V54.3678H42.3813L41.2515 51.6477H35.1475L34.0201 54.3654H30.827L36.076 42.2344ZM36.1897 49.133L38.2007 44.2873L40.2094 49.133H36.1897Z" fill="white"/>
</g>
<defs>
<filter id="filter0_d_315_1559" x="0" y="0" width="120" height="96" filterUnits="userSpaceOnUse" color-interpolation-filters="sRGB">
<feFlood flood-opacity="0" result="BackgroundImageFix"/>
<feColorMatrix in="SourceAlpha" type="matrix" values="0 0 0 0 0 0 0 0 0 0 0 0 0 0 0 0 0 0 127 0" result="hardAlpha"/>
<feOffset/>
<feGaussianBlur stdDeviation="10"/>
<feComposite in2="hardAlpha" operator="out"/>
<feColorMatrix type="matrix" values="0 0 0 0 0 0 0 0 0 0 0 0 0 0 0 0 0 0 0.07 0"/>
<feBlend mode="normal" in2="BackgroundImageFix" result="effect1_dropShadow_315_1559"/>
<feBlend mode="normal" in="SourceGraphic" in2="effect1_dropShadow_315_1559" result="shape"/>
</filter>
</defs>
</svg>
