<svg width="164" height="49" viewBox="0 0 164 49" fill="none" xmlns="http://www.w3.org/2000/svg">
<path d="M133.163 0.00567705H11.5312C11.0865 0.00567705 10.6503 0.00567765 10.2085 0.00851665C9.83786 0.0113557 9.47012 0.0170324 9.09668 0.0227104C8.28422 0.0312274 7.47461 0.102202 6.67356 0.235635C5.8725 0.371907 5.09995 0.624579 4.37587 0.99081C3.65178 1.35988 2.99326 1.83967 2.41742 2.41031C1.84157 2.98095 1.3598 3.6396 0.992052 4.36354C0.624308 5.08465 0.370595 5.85686 0.236611 6.65461C0.102627 7.45237 0.028505 8.25581 0.0199528 9.06493C0.00854992 9.434 0.00570146 9.80307 0 10.175V38.0057C0.00570146 38.3804 0.00854992 38.741 0.0199528 39.1157C0.028505 39.922 0.102627 40.7283 0.236611 41.5261C0.370595 42.3238 0.624308 43.0989 0.992052 43.82C1.3598 44.5382 1.83872 45.1969 2.41742 45.7618C2.99041 46.3353 3.64893 46.8151 4.37302 47.1813C5.0971 47.5476 5.8725 47.8031 6.6707 47.9422C7.47176 48.0728 8.28136 48.1438 9.09382 48.1551C9.46727 48.1636 9.83501 48.1665 10.2056 48.1665C10.6475 48.1693 11.0865 48.1693 11.5283 48.1693H151.761C152.195 48.1693 152.637 48.1693 153.073 48.1665C153.44 48.1665 153.82 48.1608 154.187 48.1523C154.997 48.1438 155.807 48.0728 156.605 47.9394C157.409 47.8031 158.184 47.5447 158.911 47.1785C159.635 46.8123 160.296 46.3325 160.867 45.759C161.442 45.1912 161.924 44.5326 162.295 43.8171C162.66 43.096 162.913 42.321 163.045 41.5232C163.179 40.7255 163.253 39.922 163.27 39.1129C163.275 38.7382 163.275 38.3776 163.275 38.0029C163.284 37.5656 163.284 37.1313 163.284 36.6856V11.4866C163.284 11.0465 163.284 10.6093 163.275 10.1721C163.275 9.80307 163.275 9.43399 163.27 9.06209C163.256 8.25581 163.181 7.44954 163.045 6.65178C162.913 5.85402 162.66 5.08181 162.295 4.3607C161.548 2.91281 160.365 1.73179 158.911 0.987971C158.184 0.62174 157.406 0.36907 156.605 0.232798C155.804 0.0993649 154.997 0.0283899 154.187 0.0198729C153.82 0.0141949 153.44 0.00567644 153.073 0.00283744C152.639 -1.55945e-06 152.198 0 151.761 0H133.163V0.00567705Z" fill="#CCCED3"/>
<path d="M10.2142 47.1161C9.84643 47.1161 9.48724 47.1104 9.12235 47.1048C8.36405 47.0934 7.60861 47.0281 6.86172 46.9089C6.16329 46.7896 5.49052 46.5653 4.85765 46.2474C4.23334 45.9323 3.6632 45.5206 3.17002 45.0238C2.6683 44.5326 2.25209 43.9648 1.93566 43.3431C1.61638 42.7157 1.39402 42.0428 1.27999 41.3473C1.15741 40.6006 1.08899 39.8454 1.08044 39.0903C1.07189 38.8376 1.06049 37.9916 1.06049 37.9916V10.1779C1.06049 10.1779 1.07189 9.34322 1.08044 9.1019C1.08899 8.34673 1.15741 7.59156 1.27999 6.84774C1.39402 6.15219 1.61638 5.4765 1.93851 4.84625C2.25494 4.22167 2.6683 3.65387 3.16717 3.16272C3.6632 2.66589 4.2362 2.2514 4.86051 1.93059C5.49052 1.61546 6.16329 1.39402 6.85887 1.27762C7.60861 1.15555 8.3669 1.08741 9.1252 1.07889L10.217 1.0647H153.07L154.173 1.08173C154.926 1.09025 155.678 1.15555 156.419 1.27762C157.121 1.39686 157.802 1.6183 158.441 1.93911C159.695 2.58356 160.716 3.60276 161.36 4.85192C161.673 5.47934 161.893 6.14651 162.007 6.83638C162.132 7.58872 162.204 8.34673 162.218 9.10758C162.221 9.44826 162.221 9.81449 162.221 10.1807C162.229 10.6321 162.229 11.0608 162.229 11.4952V36.6941C162.229 37.1314 162.229 37.5572 162.221 37.9887C162.221 38.3805 162.221 38.7382 162.215 39.1073C162.201 39.854 162.132 40.6006 162.01 41.3387C161.899 42.0371 161.676 42.7157 161.357 43.3488C161.038 43.9648 160.624 44.5298 160.128 45.0181C159.635 45.5149 159.062 45.9323 158.435 46.2502C157.799 46.571 157.121 46.7953 156.419 46.9117C155.673 47.0309 154.917 47.0991 154.159 47.1076C153.805 47.1161 153.435 47.1218 153.073 47.1218L151.761 47.1246L10.2142 47.1161Z" fill="#FBFBFB"/>
<path d="M39.5254 23.9555C39.5539 21.8319 40.6714 19.8701 42.4873 18.7573C41.3356 17.1192 39.4769 16.117 37.47 16.0545C35.3576 15.8331 33.3136 17.3122 32.2361 17.3122C31.1385 17.3122 29.4823 16.0744 27.7006 16.1113C25.3544 16.188 23.2192 17.4854 22.0761 19.5266C19.6444 23.7198 21.4575 29.8805 23.7865 33.2702C24.9525 34.931 26.3151 36.7821 28.0968 36.7168C29.8415 36.6458 30.4914 35.6096 32.5981 35.6096C34.682 35.6096 35.2949 36.7168 37.1137 36.6742C38.9837 36.6458 40.1639 35.0077 41.2871 33.3327C42.1252 32.1488 42.7695 30.8429 43.1971 29.4603C40.9735 28.5263 39.5282 26.3573 39.5254 23.9555ZM36.0931 13.8259C37.1137 12.6051 37.6154 11.038 37.4957 9.45386C35.9363 9.61568 34.4967 10.3595 33.4619 11.532C32.4413 12.6903 31.9225 14.2035 32.0251 15.7394C33.6016 15.7564 35.101 15.0495 36.0931 13.8259Z" fill="#283350"/>
<path d="M60.4497 32.6855H54.7283L53.3514 36.7254H50.9283L56.3475 21.7724H58.8647L64.2868 36.7254H61.8209L60.4497 32.6855ZM55.3184 30.8203H59.8539L57.6161 24.2622H57.5534C57.5562 24.2622 55.3184 30.8203 55.3184 30.8203ZM75.9947 31.2745C75.9947 34.6614 74.1731 36.839 71.425 36.839C70.0054 36.9128 68.6684 36.1718 67.9813 34.9312H67.93V40.3309H65.6836V25.8236H67.8588V27.6378H67.8987C68.6142 26.4056 69.954 25.6647 71.3851 25.7101C74.1646 25.7129 75.9947 27.8989 75.9947 31.2745ZM73.6856 31.2745C73.6856 29.0686 72.5397 27.6179 70.7922 27.6179C69.076 27.6179 67.9215 29.0998 67.9215 31.2774C67.9215 33.4747 69.076 34.9453 70.7922 34.9453C72.5397 34.9453 73.6856 33.5031 73.6856 31.2745ZM88.0419 31.2745C88.0419 34.6614 86.2203 36.839 83.4722 36.839C82.0525 36.9128 80.7155 36.1718 80.0285 34.9312H79.9772V40.3309H77.7308V25.8236H79.9059V27.6378H79.9458C80.6642 26.4056 82.0012 25.6647 83.4323 25.7101C86.2117 25.7129 88.0419 27.8989 88.0419 31.2745ZM85.7328 31.2745C85.7328 29.0686 84.5868 27.6179 82.8393 27.6179C81.1232 27.6179 79.9687 29.0998 79.9687 31.2774C79.9687 33.4747 81.1232 34.9453 82.8393 34.9453C84.5868 34.9453 85.7328 33.5031 85.7328 31.2745ZM96.004 32.5606C96.1722 34.0425 97.6175 35.0163 99.5931 35.0163C101.486 35.0163 102.849 34.0425 102.849 32.7054C102.849 31.5442 102.028 30.8515 100.081 30.3746L98.1335 29.909C95.3768 29.2446 94.0969 27.9614 94.0969 25.8776C94.0969 23.2969 96.3546 21.5254 99.5589 21.5254C102.732 21.5254 104.907 23.2969 104.981 25.8776H102.712C102.575 24.3843 101.338 23.4843 99.5275 23.4843C97.7173 23.4843 96.4801 24.3956 96.4801 25.7214C96.4801 26.7804 97.2726 27.3993 99.2082 27.8762L100.862 28.2822C103.943 29.0062 105.22 30.2411 105.22 32.4271C105.22 35.2236 102.983 36.9781 99.4249 36.9781C96.0952 36.9781 93.846 35.2662 93.7006 32.5634C93.7035 32.5606 96.004 32.5606 96.004 32.5606ZM110.075 23.2458V25.8265H112.156V27.598H110.075V33.6082C110.075 34.5422 110.491 34.9766 111.406 34.9766C111.654 34.9709 111.9 34.9539 112.145 34.9255V36.6857C111.731 36.7623 111.315 36.7964 110.896 36.7907C108.681 36.7907 107.815 35.9617 107.815 33.8495V27.6008H106.221V25.8293H107.815V23.2458H110.075ZM113.359 31.2745C113.359 27.845 115.389 25.6902 118.55 25.6902C121.723 25.6902 123.744 27.845 123.744 31.2745C123.744 34.7154 121.735 36.8588 118.55 36.8588C115.369 36.8617 113.359 34.7154 113.359 31.2745ZM121.455 31.2745C121.455 28.921 120.372 27.5327 118.55 27.5327C116.732 27.5327 115.648 28.9323 115.648 31.2745C115.648 33.6366 116.732 35.0135 118.55 35.0135C120.372 35.0163 121.455 33.6394 121.455 31.2745ZM125.597 25.8236H127.741V27.6775H127.792C128.092 26.4823 129.189 25.6618 130.424 25.7072C130.683 25.7072 130.943 25.7356 131.193 25.7896V27.8819C130.866 27.7825 130.526 27.7371 130.184 27.7456C129.523 27.7201 128.884 27.9813 128.434 28.4639C127.983 28.9465 127.767 29.5995 127.844 30.2553V36.7197H125.595V25.8236H125.597ZM141.556 33.523C141.254 35.5018 139.318 36.8588 136.844 36.8588C133.659 36.8588 131.684 34.7353 131.684 31.3256C131.684 27.9075 133.671 25.6874 136.749 25.6874C139.777 25.6874 141.681 27.7598 141.681 31.0644V31.831H133.95V31.9672C133.879 32.7792 134.158 33.5826 134.723 34.1731C135.287 34.7636 136.077 35.0845 136.895 35.0561C137.987 35.1583 139.013 34.5337 139.423 33.523H141.556ZM133.959 30.2695H139.432C139.472 29.5399 139.207 28.8273 138.697 28.3021C138.186 27.7769 137.479 27.4873 136.747 27.5015C136.008 27.4958 135.298 27.7854 134.774 28.3078C134.252 28.8273 133.956 29.5342 133.959 30.2695Z" fill="#283350"/>
<path d="M55.039 10.5184C55.994 10.4503 56.9262 10.8109 57.5847 11.5036C58.2433 12.1935 58.554 13.1417 58.4343 14.0871C58.4343 16.3838 57.1885 17.7011 55.039 17.7011H52.4335V10.5156H55.039V10.5184ZM53.5538 16.6876H54.9136C55.5949 16.7273 56.2591 16.4605 56.721 15.9608C57.1828 15.4611 57.3937 14.777 57.294 14.1041C57.3852 13.4341 57.1742 12.7584 56.7124 12.2616C56.2506 11.7648 55.5921 11.4979 54.9136 11.5348H53.5538V16.6876ZM59.6971 14.9899C59.603 14.0161 60.0706 13.0764 60.903 12.5625C61.7354 12.0458 62.7902 12.0458 63.6226 12.5625C64.455 13.0764 64.9225 14.0161 64.8284 14.9899C64.9225 15.9637 64.4578 16.9034 63.6226 17.4201C62.7902 17.9368 61.7354 17.9368 60.9001 17.4201C60.0706 16.9062 59.603 15.9637 59.6971 14.9899ZM63.7281 14.9899C63.7281 13.8145 63.1978 13.1275 62.2685 13.1275C61.3334 13.1275 60.8089 13.8145 60.8089 14.9899C60.8089 16.1766 61.3334 16.8579 62.2685 16.8579C63.1978 16.8579 63.7281 16.1709 63.7281 14.9899ZM71.6588 17.704H70.5442L69.4181 13.7123H69.3326L68.2122 17.704H67.109L65.6067 12.2815H66.6957L67.6706 16.4179H67.7504L68.8679 12.2815H69.8999L71.0174 16.4179H71.1029L72.0721 12.2815H73.1469L71.6588 17.704ZM74.4154 12.2815H75.4503V13.1417H75.5301C75.8094 12.5086 76.4623 12.1196 77.155 12.1764C77.6909 12.1367 78.2183 12.3411 78.5832 12.7329C78.9509 13.1247 79.1191 13.6612 79.0393 14.1921V17.7011H77.9646V14.459C77.9646 13.5874 77.5855 13.1559 76.7901 13.1559C76.4252 13.1388 76.0717 13.2808 75.8237 13.5448C75.5728 13.8089 75.4531 14.1694 75.4902 14.53V17.7011H74.4154V12.2815ZM80.7526 10.1636H81.8273V17.7011H80.7526V10.1636ZM83.3183 14.9899C83.2242 14.0161 83.6917 13.0764 84.527 12.5625C85.3594 12.0458 86.4142 12.0458 87.2466 12.5625C88.079 13.0764 88.5493 14.0161 88.4553 14.9899C88.5493 15.9637 88.0847 16.9034 87.2494 17.4201C86.4141 17.9368 85.3594 17.9368 84.527 17.4201C83.6917 16.9062 83.2242 15.9637 83.3183 14.9899ZM87.3492 14.9899C87.3492 13.8145 86.819 13.1275 85.8896 13.1275C84.9546 13.1275 84.43 13.8145 84.43 14.9899C84.43 16.1766 84.9546 16.8579 85.8896 16.8579C86.819 16.8579 87.3492 16.1709 87.3492 14.9899ZM89.587 16.1709C89.587 15.1943 90.3168 14.6322 91.611 14.5527L93.0849 14.4675V13.9991C93.0849 13.4256 92.7057 13.1048 91.9702 13.1048C91.3716 13.1048 90.9554 13.3234 90.8356 13.7066H89.7951C89.9034 12.7755 90.7843 12.1793 92.0187 12.1793C93.3842 12.1793 94.1539 12.8549 94.1539 14.0019V17.7068H93.1191V16.9431H93.0335C92.6829 17.4996 92.0557 17.826 91.3972 17.7948C90.9354 17.8431 90.4736 17.6926 90.1287 17.3832C89.7866 17.0737 89.587 16.6337 89.587 16.1709ZM93.0849 15.7081V15.2539L91.7536 15.3391C91.0038 15.3902 90.6646 15.6428 90.6646 16.1226C90.6646 16.6109 91.0894 16.8948 91.6737 16.8948C92.0187 16.9289 92.3665 16.8239 92.6316 16.5996C92.8996 16.3725 93.062 16.0517 93.0849 15.7081ZM95.5678 14.9899C95.5678 13.2751 96.4516 12.1906 97.8285 12.1906C98.5212 12.1594 99.174 12.5285 99.499 13.1417H99.5788V10.1636H100.654V17.704H99.6244V16.8466H99.5389C99.1911 17.4541 98.5298 17.8204 97.8285 17.792C96.443 17.792 95.5678 16.7075 95.5678 14.9899ZM96.6768 14.9899C96.6768 16.1397 97.2213 16.8324 98.1306 16.8324C99.0372 16.8324 99.5959 16.1312 99.5959 14.9956C99.5959 13.8656 99.0286 13.153 98.1306 13.153C97.2298 13.153 96.6768 13.8486 96.6768 14.9899ZM105.098 14.9899C105.004 14.0161 105.471 13.0764 106.304 12.5625C107.136 12.0458 108.191 12.0458 109.023 12.5625C109.856 13.0764 110.323 14.0161 110.229 14.9899C110.323 15.9637 109.859 16.9034 109.023 17.4201C108.191 17.9368 107.136 17.9368 106.301 17.4201C105.468 16.9062 105.001 15.9637 105.098 14.9899ZM109.129 14.9899C109.129 13.8145 108.599 13.1275 107.669 13.1275C106.734 13.1275 106.21 13.8145 106.21 14.9899C106.21 16.1766 106.734 16.8579 107.669 16.8579C108.599 16.8579 109.129 16.1709 109.129 14.9899ZM111.674 12.2815H112.709V13.1417H112.789C113.068 12.5086 113.721 12.1196 114.414 12.1764C114.95 12.1367 115.477 12.3411 115.842 12.7329C116.21 13.1247 116.375 13.6612 116.298 14.1921V17.7011H115.224V14.459C115.224 13.5874 114.844 13.1559 114.049 13.1559C113.684 13.1388 113.334 13.2808 113.083 13.5448C112.835 13.8089 112.712 14.1694 112.752 14.53V17.7011H111.677V12.2815H111.674ZM122.37 10.9329V12.307H123.551V13.207H122.37V15.9949C122.37 16.5627 122.604 16.8125 123.14 16.8125C123.277 16.8125 123.414 16.804 123.551 16.787V17.6784C123.357 17.7125 123.163 17.7323 122.966 17.7352C121.772 17.7352 121.296 17.315 121.296 16.2703V13.207H120.429V12.307H121.293V10.9329C121.293 10.9329 122.37 10.9329 122.37 10.9329ZM125.016 10.1636H126.082V13.1502H126.168C126.458 12.5114 127.123 12.1225 127.827 12.1793C128.36 12.1509 128.879 12.361 129.243 12.7499C129.606 13.1417 129.774 13.6726 129.702 14.2006V17.7011H128.628V14.4618C128.628 13.5959 128.223 13.1559 127.465 13.1559C127.091 13.1247 126.723 13.2609 126.458 13.5278C126.193 13.7918 126.062 14.1609 126.093 14.5328V17.7011H125.019V10.1636H125.016ZM135.966 16.239C135.663 17.2611 134.671 17.9226 133.605 17.8062C132.881 17.826 132.183 17.5251 131.698 16.9857C131.213 16.4463 130.991 15.7223 131.091 15.0069C130.994 14.2886 131.216 13.5619 131.698 13.0196C132.18 12.4745 132.872 12.1679 133.602 12.1736C135.116 12.1736 136.031 13.2041 136.031 14.9075V15.2795H132.188V15.3391C132.154 15.7422 132.294 16.1397 132.567 16.4349C132.844 16.7302 133.232 16.8977 133.636 16.892C134.164 16.9545 134.674 16.6961 134.934 16.2334L135.966 16.239ZM132.188 14.493H134.939C134.965 14.124 134.837 13.7634 134.58 13.4966C134.326 13.2269 133.967 13.0821 133.597 13.0877C133.22 13.0821 132.858 13.2297 132.593 13.4966C132.328 13.7577 132.183 14.1183 132.188 14.493Z" fill="#283350"/>
</svg>
