<svg width="32" height="32" viewBox="0 0 32 32" fill="none" xmlns="http://www.w3.org/2000/svg">
<path d="M5.33331 21.3333C5.33331 22.5066 5.85331 23.56 6.66665 24.2933V26.6666C6.66665 27.4 7.26665 28 7.99998 28H9.33331C10.0666 28 10.6666 27.4 10.6666 26.6666V25.3333H21.3333V26.6666C21.3333 27.4 21.9333 28 22.6666 28H24C24.7333 28 25.3333 27.4 25.3333 26.6666V24.2933C26.1466 23.56 26.6666 22.5066 26.6666 21.3333V7.99996C26.6666 3.33329 21.8933 2.66663 16 2.66663C10.1066 2.66663 5.33331 3.33329 5.33331 7.99996V21.3333ZM9.99998 22.6666C8.89331 22.6666 7.99998 21.7733 7.99998 20.6666C7.99998 19.56 8.89331 18.6666 9.99998 18.6666C11.1066 18.6666 12 19.56 12 20.6666C12 21.7733 11.1066 22.6666 9.99998 22.6666ZM22 22.6666C20.8933 22.6666 20 21.7733 20 20.6666C20 19.56 20.8933 18.6666 22 18.6666C23.1066 18.6666 24 19.56 24 20.6666C24 21.7733 23.1066 22.6666 22 22.6666ZM24 14.6666H7.99998V7.99996H24V14.6666Z" fill="#304C5F"/>
</svg>
