<svg width="80" height="80" viewBox="0 0 80 80" fill="none" xmlns="http://www.w3.org/2000/svg">
<path fill-rule="evenodd" clip-rule="evenodd" d="M55.4291 38.1217C59.9968 38.1217 64.1427 40.0186 67.1375 43.0825C70.1323 46.1517 71.9864 50.3878 71.9864 55.0608C71.9864 59.7392 70.1323 63.9753 67.1375 67.0392C64.1375 70.1031 59.9968 72 55.4291 72C50.8562 72 46.7156 70.1031 43.7208 67.0392C40.726 63.97 38.8718 59.7339 38.8718 55.0608C38.8718 50.3878 40.726 46.1463 43.7208 43.0825C46.7156 40.0186 50.8614 38.1217 55.4291 38.1217ZM58.6687 48.9118C59.4083 48.1445 60.6166 48.1392 61.3614 48.9065C62.1062 49.6738 62.1114 50.9153 61.3666 51.6879L58.1166 55.0608L61.3718 58.4391C62.1062 59.2011 62.0958 60.4373 61.351 61.2045C60.6062 61.9665 59.4031 61.9665 58.6687 61.1992L55.4343 57.8476L52.1947 61.2099C51.4552 61.9825 50.2468 61.9825 49.502 61.2152C48.7572 60.4479 48.752 59.2064 49.4968 58.4338L52.7468 55.0608L49.4916 51.6826C48.7572 50.9206 48.7677 49.6844 49.5125 48.9171C50.2572 48.1552 51.4604 48.1552 52.1947 48.9225L55.4291 52.2741L58.6687 48.9118Z" fill="#D23B38"/>
<path d="M44.175 10.1527C44.175 8.96978 45.3156 8 46.7375 8C48.1594 8 49.3 8.95912 49.3 10.1527V19.5627C49.3 20.7457 48.1594 21.7154 46.7375 21.7154C45.3156 21.7154 44.175 20.7563 44.175 19.5627V10.1527ZM14.9979 38.4628C14.8521 38.4628 14.7219 37.8074 14.7219 37.0081C14.7219 36.2035 14.8365 35.5587 14.9979 35.5587H21.9979C22.1438 35.5587 22.274 36.2141 22.274 37.0081C22.274 37.8074 22.1594 38.4628 21.9979 38.4628H14.9979ZM26.149 38.4628C26.0031 38.4628 25.8729 37.8074 25.8729 37.0081C25.8729 36.2035 25.9875 35.5587 26.149 35.5587H33.149C33.2948 35.5587 33.425 36.2141 33.425 37.0081C33.425 37.8074 33.3104 38.4628 33.149 38.4628H26.149ZM37.3052 38.4628C37.1594 38.4628 37.0292 37.8074 37.0292 37.0081C37.0292 36.2035 37.1438 35.5587 37.3052 35.5587H44.3052C44.4511 35.5587 44.5813 36.2088 44.5813 37.0028C43.8781 37.4503 43.2063 37.9352 42.5604 38.4628H37.3052ZM15.0136 46.7911C14.8677 46.7911 14.7375 46.1357 14.7375 45.3365C14.7375 44.5319 14.8521 43.8818 15.0136 43.8818H22.0136C22.1594 43.8818 22.2896 44.5319 22.2896 45.3365C22.2896 46.1357 22.175 46.7911 22.0136 46.7911H15.0136ZM26.1646 46.7911C26.0188 46.7911 25.8886 46.1357 25.8886 45.3365C25.8886 44.5319 26.0031 43.8818 26.1646 43.8818H33.1646C33.3104 43.8818 33.4406 44.5319 33.4406 45.3365C33.4406 46.1357 33.3261 46.7911 33.1646 46.7911H26.1646ZM15.0292 55.1195C14.8833 55.1195 14.7531 54.4694 14.7531 53.6648C14.7531 52.8656 14.8677 52.2102 15.0292 52.2102H22.024C22.1698 52.2102 22.3 52.8656 22.3 53.6648C22.3 54.4694 22.1854 55.1195 22.024 55.1195H15.0292ZM26.1802 55.1195C26.0344 55.1195 25.9042 54.4694 25.9042 53.6648C25.9042 52.8656 26.0188 52.2102 26.1802 52.2102H33.1802C33.3261 52.2102 33.4563 52.8656 33.4563 53.6648C33.4563 54.4694 33.3417 55.1195 33.1802 55.1195H26.1802ZM21.1438 10.1527C21.1438 8.96445 22.2844 8 23.7063 8C25.1281 8 26.2688 8.95912 26.2688 10.1527V19.5627C26.2688 20.7457 25.1229 21.7154 23.7063 21.7154C22.2844 21.7154 21.1438 20.7563 21.1438 19.5627V10.1527ZM10.8365 28.5731H59.675V17.7404C59.675 17.3674 59.5292 17.0424 59.2948 16.8079C59.0604 16.5735 58.7271 16.419 58.3834 16.419H53.7011C52.9198 16.419 52.2792 15.7636 52.2792 14.9643C52.2792 14.165 52.9198 13.5096 53.7011 13.5096H58.3834C59.5292 13.5096 60.5604 13.9839 61.3104 14.7511C62.0657 15.5184 62.524 16.5735 62.524 17.7457V34.946C61.5917 34.6156 60.6281 34.3492 59.6438 34.152V31.4665H59.675H10.8365V59.5261C10.8365 59.8991 10.9823 60.2188 11.2167 60.4586C11.4511 60.6984 11.7844 60.8476 12.1281 60.8476H35.3365C35.6021 61.8546 35.9354 62.8404 36.3313 63.7836H12.1542C11.0136 63.7836 9.97709 63.3093 9.22709 62.542C8.47709 61.7747 8.01355 60.725 8.01355 59.5528V17.7511C8.01355 16.5841 8.47709 15.5238 9.22709 14.7565C9.97709 13.9839 11.0083 13.5149 12.1542 13.5149H17.1542C17.9406 13.5149 18.5761 14.1703 18.5761 14.9696C18.5761 15.7689 17.9354 16.4243 17.1542 16.4243H12.1542C11.7896 16.4243 11.4719 16.5735 11.2427 16.8133C11.0083 17.053 10.8625 17.3941 10.8625 17.7457V28.5785H10.8365V28.5731ZM30.3729 16.419C29.5917 16.419 28.9511 15.7636 28.9511 14.9643C28.9511 14.165 29.5917 13.5096 30.3729 13.5096H39.9042C40.6854 13.5096 41.3261 14.165 41.3261 14.9643C41.3261 15.7689 40.6854 16.419 39.9042 16.419H30.3729Z" fill="#304C5F"/>
</svg>
