<svg width="120" height="96" viewBox="0 0 120 96" fill="none" xmlns="http://www.w3.org/2000/svg">
<g filter="url(#filter0_d_315_1577)">
<rect x="21.3229" y="21.3229" width="77.3542" height="53.3542" rx="14.5521" fill="white" stroke="#D9D9D9" stroke-width="2.64583"/>
<path d="M53.6782 74.8334L98.8211 61.4167V61.6042C98.8211 68.9105 92.8982 74.8334 85.5919 74.8334H53.6782Z" fill="#FD6020"/>
<path fill-rule="evenodd" clip-rule="evenodd" d="M90.2526 42.4249C92.7362 42.4249 94.1021 43.5532 94.1021 45.6843C94.2263 47.314 93.1087 48.693 91.6186 48.9438L94.9714 53.5822H92.3637L89.5076 49.0691H89.2592V53.5822H87.1482V42.4249H90.2526ZM89.2592 47.5647H89.8801C91.246 47.5647 91.8669 46.9379 91.8669 45.8096C91.8669 44.8067 91.246 44.1799 89.8801 44.1799H89.2592V47.5647ZM79.8217 53.5822H85.7822V51.7017H81.9327V48.693H85.658V46.8126H81.9327V44.3053H85.7822V42.4249H79.8217V53.5822V53.5822ZM73.6128 49.9467L70.7567 42.4249H68.5215L73.1161 53.8329H74.2337L78.8283 42.4249H76.5931L73.6128 49.9467V49.9467ZM48.4047 48.0666C48.4047 51.2007 50.8882 53.8333 53.9927 53.8333C54.9861 53.8333 55.8553 53.5826 56.7246 53.2065V50.6992C56.1037 51.4514 55.2345 51.9529 54.241 51.9529C52.2542 51.9529 50.6399 50.4485 50.6399 48.4427V48.192C50.5157 46.1862 52.13 44.4311 54.1169 44.3057C55.1103 44.3057 56.1037 44.8072 56.7246 45.5594V43.0521C55.9795 42.5506 54.9861 42.4253 54.1169 42.4253C50.8882 42.1746 48.4047 44.8072 48.4047 48.0666V48.0666ZM44.5552 46.6875C43.3134 46.186 42.9409 45.9353 42.9409 45.3085C43.065 44.5563 43.6859 43.9295 44.431 44.0549C45.0519 44.0549 45.6728 44.431 46.1695 44.9324L47.2871 43.4281C46.4179 42.6759 45.3003 42.1744 44.1826 42.1744C42.4442 42.0491 40.954 43.4281 40.8298 45.1831V45.3085C40.8298 46.8128 41.4507 47.6904 43.4376 48.3172C43.9343 48.4426 44.431 48.6933 44.9277 48.944C45.3003 49.1947 45.5486 49.5708 45.5486 50.0723C45.5486 50.9498 44.8035 51.702 44.0585 51.702H43.9343C42.9409 51.702 42.0716 51.0752 41.6991 50.1976L40.3331 51.5766C41.0782 52.9556 42.5683 53.7078 44.0585 53.7078C46.0453 53.8332 47.6596 52.3288 47.7838 50.323V49.9469C47.6596 48.4426 47.0387 47.6904 44.5552 46.6875V46.6875ZM37.3529 53.5822H39.4639V42.4249H37.3529V53.5822V53.5822ZM27.5428 42.4249H30.6473H31.2682C34.2484 42.5502 36.6078 45.0575 36.4836 48.0662C36.4836 49.6959 35.7386 51.2003 34.4968 52.3286C33.3792 53.2061 32.0132 53.7075 30.6473 53.5822H27.5428V42.4249ZM30.2747 51.7017C31.2681 51.8271 32.3857 51.451 33.1308 50.8242C33.8759 50.072 34.2484 49.0691 34.2484 47.9408C34.2484 46.9379 33.8759 45.935 33.1308 45.1829C32.3857 44.556 31.2681 44.18 30.2747 44.3053H29.6538V51.7017H30.2747Z" fill="black"/>
<path fill-rule="evenodd" clip-rule="evenodd" d="M63.0577 42.1665C59.9533 42.1665 57.3455 44.6738 57.3455 47.9332C57.3455 51.0673 59.8291 53.6999 63.0577 53.8253C66.2863 53.9506 68.7699 51.318 68.8941 48.0586C68.7699 44.7991 66.2863 42.1665 63.0577 42.1665V42.1665Z" fill="#FD6020"/>
</g>
<defs>
<filter id="filter0_d_315_1577" x="0" y="0" width="120" height="96" filterUnits="userSpaceOnUse" color-interpolation-filters="sRGB">
<feFlood flood-opacity="0" result="BackgroundImageFix"/>
<feColorMatrix in="SourceAlpha" type="matrix" values="0 0 0 0 0 0 0 0 0 0 0 0 0 0 0 0 0 0 127 0" result="hardAlpha"/>
<feOffset/>
<feGaussianBlur stdDeviation="10"/>
<feComposite in2="hardAlpha" operator="out"/>
<feColorMatrix type="matrix" values="0 0 0 0 0 0 0 0 0 0 0 0 0 0 0 0 0 0 0.07 0"/>
<feBlend mode="normal" in2="BackgroundImageFix" result="effect1_dropShadow_315_1577"/>
<feBlend mode="normal" in="SourceGraphic" in2="effect1_dropShadow_315_1577" result="shape"/>
</filter>
</defs>
</svg>
