<svg width="80" height="80" viewBox="0 0 80 80" fill="none" xmlns="http://www.w3.org/2000/svg">
<path d="M40.4571 49.8285L52.9723 46.3086C54.377 45.9135 55.8324 45.5947 57.2823 45.76C59.7895 46.0457 60.9342 47.1642 61.1881 48.5046C61.9085 52.3069 56.9338 54.2257 53.3521 55.691L48.6857 57.5999L34.0571 61.2571H16.6857M40.4571 49.8285C40.4571 49.8285 35.7206 49.8285 32.6857 49.8285M40.4571 49.8285C43.0794 49.1729 45.9367 45.697 44.4789 42.7712C42.9622 39.727 38.7194 39.7714 35.3184 39.7714H26.5282C25.2021 39.7714 23.9304 40.2981 22.9927 41.2358L16.6857 47.5428M16.6857 47.5428V61.2571M16.6857 47.5428H11C9.34315 47.5428 8 48.8859 8 50.5428V58.2571C8 59.9139 9.34315 61.2571 11 61.2571H16.6857" stroke="#304C5F" stroke-width="3" stroke-linecap="round"/>
<circle cx="51.8857" cy="28.7999" r="8.55714" stroke="#D23B38" stroke-width="3"/>
<circle cx="61.9429" cy="33.3714" r="8.55714" fill="white" stroke="#D23B38" stroke-width="3"/>
</svg>
