<svg width="24" height="24" viewBox="0 0 24 24" fill="none" xmlns="http://www.w3.org/2000/svg">
<path d="M1.41398 4.75451C1.53829 4.83748 1.57962 5.00312 1.53829 5.16905L1.16537 6.8266C1.0824 7.19952 1.45561 7.44812 1.78689 7.28248L3.23752 6.41204C3.36182 6.32908 3.52776 6.32908 3.65206 6.41204L5.10269 7.28248C5.43427 7.48975 5.80718 7.19952 5.72421 6.8266L5.35129 5.16905C5.30996 5.00341 5.3513 4.87882 5.4756 4.75451L6.76024 3.63549C7.05048 3.38688 6.88455 2.93101 6.51163 2.93101L4.81242 2.8067C4.64678 2.8067 4.52218 2.6824 4.48084 2.55809L3.8177 0.98321C3.69339 0.651634 3.19618 0.651634 3.07188 0.98321L2.40874 2.55809C2.3674 2.6824 2.20147 2.8067 2.07716 2.8067L0.377951 2.93101C0.00503612 2.97235 -0.119268 3.42823 0.129342 3.63549L1.41398 4.75451Z" fill="#889091"/>
<path d="M9.95114 6.03922H22.5911C23.3785 6.03922 24 5.4177 24 4.63025C24 3.8428 23.3785 3.22128 22.5911 3.22128H9.95114C9.16366 3.22128 8.54218 3.8428 8.54218 4.63025C8.54218 5.4177 9.16369 6.03922 9.95114 6.03922Z" fill="#889091"/>
<path d="M1.41398 12.7115C1.53829 12.7944 1.57962 12.9601 1.53829 13.126L1.16537 14.7836C1.0824 15.1565 1.45561 15.4051 1.78689 15.2395L3.23752 14.369C3.36182 14.286 3.52776 14.286 3.65206 14.369L5.10269 15.2395C5.43427 15.4467 5.80718 15.1565 5.72421 14.7836L5.35129 13.126C5.30996 12.9604 5.3513 12.8358 5.4756 12.7115L6.76024 11.5925C7.05048 11.3439 6.88455 10.888 6.51163 10.888L4.81242 10.7637C4.64678 10.7637 4.52218 10.6394 4.48084 10.5151L3.8177 8.94018C3.69339 8.6086 3.19618 8.6086 3.07188 8.94018L2.40874 10.5151C2.3674 10.6394 2.20147 10.7637 2.07716 10.7637L0.377951 10.888C0.00503612 10.9293 -0.119268 11.3852 0.129342 11.5925L1.41398 12.7115Z" fill="#889091"/>
<path d="M9.95114 13.9962H22.5911C23.3785 13.9962 24 13.3747 24 12.5872C24 11.7998 23.3785 11.1783 22.5911 11.1783H9.95114C9.16366 11.1783 8.54218 11.7998 8.54218 12.5872C8.54218 13.3747 9.16369 13.9962 9.95114 13.9962Z" fill="#889091"/>
<path d="M1.41398 20.6684C1.53829 20.7513 1.57962 20.917 1.53829 21.0829L1.16537 22.7404C1.0824 23.1134 1.45561 23.362 1.78689 23.1963L3.23752 22.3259C3.36182 22.2429 3.52776 22.2429 3.65206 22.3259L5.10269 23.1963C5.43427 23.4036 5.80718 23.1134 5.72421 22.7404L5.35129 21.0829C5.30996 20.9173 5.3513 20.7927 5.4756 20.6684L6.76024 19.5493C7.05048 19.3007 6.88455 18.8449 6.51163 18.8449L4.81242 18.7206C4.64678 18.7206 4.52218 18.5962 4.48084 18.4719L3.8177 16.8971C3.69339 16.5655 3.19618 16.5655 3.07188 16.8971L2.40874 18.4719C2.3674 18.5962 2.20147 18.7206 2.07716 18.7206L0.377951 18.8449C0.00503612 18.8862 -0.119268 19.3421 0.129342 19.5493L1.41398 20.6684Z" fill="#889091"/>
<path d="M9.95114 21.9531H22.5911C23.3785 21.9531 24 21.3316 24 20.5441C24 19.7566 23.3369 19.1765 22.5911 19.1765H9.95114C9.16366 19.1765 8.54218 19.798 8.54218 20.5855C8.54218 21.3729 9.16369 21.9531 9.95114 21.9531Z" fill="#889091"/>
</svg>
