<svg width="48" height="49" viewBox="0 0 48 49" fill="none" xmlns="http://www.w3.org/2000/svg">
<path d="M38.4 6.97607H9.6C7.832 6.97607 6.4 8.40807 6.4 10.1761V38.9761C6.4 40.7441 7.832 42.1761 9.6 42.1761H25.6V27.7761H20.8V22.9761H25.6V20.3985C25.6 15.5185 27.9776 13.3761 32.0336 13.3761C33.976 13.3761 35.0032 13.5201 35.4896 13.5857V18.1761H32.7232C31.0016 18.1761 30.4 19.0849 30.4 20.9249V22.9761H35.4464L34.7616 27.7761H30.4V42.1761H38.4C40.168 42.1761 41.6 40.7441 41.6 38.9761V10.1761C41.6 8.40807 40.1664 6.97607 38.4 6.97607Z" fill="#283350"/>
</svg>
