<svg width="32" height="32" viewBox="0 0 32 32" fill="none" xmlns="http://www.w3.org/2000/svg">
<path d="M2.66668 25.3334C2.2889 25.3334 1.97201 25.2054 1.71601 24.9494C1.46001 24.6934 1.33246 24.3769 1.33335 24V6.66671C1.33335 6.28893 1.46135 5.97205 1.71735 5.71605C1.97335 5.46005 2.28979 5.33249 2.66668 5.33338C3.04446 5.33338 3.36135 5.46138 3.61735 5.71738C3.87335 5.97338 4.0009 6.28982 4.00001 6.66671V18.6667H14.6667V10.6667C14.6667 9.93338 14.928 9.30538 15.4507 8.78271C15.9733 8.26005 16.6009 7.99916 17.3333 8.00005H25.3333C26.8 8.00005 28.0556 8.52227 29.1 9.56671C30.1445 10.6112 30.6667 11.8667 30.6667 13.3334V24C30.6667 24.3778 30.5387 24.6947 30.2827 24.9507C30.0267 25.2067 29.7102 25.3343 29.3333 25.3334C28.9556 25.3334 28.6387 25.2054 28.3827 24.9494C28.1267 24.6934 27.9991 24.3769 28 24V21.3334H4.00001V24C4.00001 24.3778 3.87201 24.6947 3.61601 24.9507C3.36001 25.2067 3.04357 25.3343 2.66668 25.3334ZM9.33335 17.3334C8.22224 17.3334 7.27779 16.9445 6.50001 16.1667C5.72224 15.3889 5.33335 14.4445 5.33335 13.3334C5.33335 12.2223 5.72224 11.2778 6.50001 10.5C7.27779 9.72227 8.22224 9.33338 9.33335 9.33338C10.4445 9.33338 11.3889 9.72227 12.1667 10.5C12.9445 11.2778 13.3333 12.2223 13.3333 13.3334C13.3333 14.4445 12.9445 15.3889 12.1667 16.1667C11.3889 16.9445 10.4445 17.3334 9.33335 17.3334Z" fill="#304C5F"/>
</svg>
