<svg width="25" height="24" viewBox="0 0 25 24" fill="none" xmlns="http://www.w3.org/2000/svg">
<g clip-path="url(#clip0_354_1517)">
<path d="M1.26111 21.252H3.16111C3.39411 21.252 3.62411 21.306 3.83211 21.41L5.56511 22.277C6.18991 22.5891 6.8787 22.7517 7.57711 22.752H19.2611C19.6589 22.752 20.0405 22.5939 20.3218 22.3126C20.6031 22.0313 20.7611 21.6498 20.7611 21.252C20.7611 20.8541 20.6031 20.4726 20.3218 20.1913C20.0405 19.91 19.6589 19.752 19.2611 19.752M19.2611 19.752H21.5111C21.9089 19.752 22.2905 19.5939 22.5718 19.3126C22.8531 19.0313 23.0111 18.6498 23.0111 18.252C23.0111 17.8541 22.8531 17.4726 22.5718 17.1913C22.2905 16.91 21.9089 16.752 21.5111 16.752M19.2611 19.752H16.2611M21.5111 16.752H22.2611C22.6589 16.752 23.0405 16.5939 23.3218 16.3126C23.6031 16.0313 23.7611 15.6498 23.7611 15.252C23.7611 14.8541 23.6031 14.4726 23.3218 14.1913C23.0405 13.91 22.6589 13.752 22.2611 13.752H20.7611M21.5111 16.752H17.0111M20.7611 13.752C21.1589 13.752 21.5405 13.5939 21.8218 13.3126C22.1031 13.0313 22.2611 12.6498 22.2611 12.252C22.2611 11.8541 22.1031 11.4726 21.8218 11.1913C21.5405 10.91 21.1589 10.752 20.7611 10.752H15.5111M20.7611 13.752H17.0111M15.5111 10.752C15.9089 10.752 16.2905 10.5939 16.5718 10.3126C16.8531 10.0313 17.0111 9.6498 17.0111 9.25197C17.0111 8.85415 16.8531 8.47261 16.5718 8.19131C16.2905 7.91001 15.9089 7.75197 15.5111 7.75197H9.66911C8.92867 7.75158 8.19958 7.93391 7.54648 8.28279C6.89338 8.63167 6.33646 9.13631 5.92511 9.75197L4.71111 11.584C4.57414 11.7894 4.38857 11.9579 4.17086 12.0744C3.95315 12.191 3.71004 12.252 3.46311 12.252H1.26111M15.5111 10.752H13.2611M23.5111 8.24797C23.511 7.97349 23.4541 7.702 23.3441 7.45053C23.234 7.19906 23.0732 6.97305 22.8717 6.78667C22.6702 6.60028 22.4324 6.45755 22.1731 6.36743C21.9139 6.27732 21.6388 6.24175 21.3651 6.26297C21.4581 5.93297 21.5071 5.59097 21.5111 5.24797C21.5139 4.40684 21.2508 3.58634 20.7594 2.90368C20.268 2.22102 19.5734 1.71112 18.7748 1.44683C17.9763 1.18254 17.1147 1.17736 16.313 1.43205C15.5113 1.68674 14.8107 2.18826 14.3111 2.86497C13.7593 2.44406 13.0782 2.2285 12.3847 2.25533C11.6912 2.28215 11.0287 2.54969 10.5111 3.01197" stroke="#505B6B" stroke-width="1.5" stroke-linecap="round" stroke-linejoin="round"/>
</g>
<defs>
<clipPath id="clip0_354_1517">
<rect width="24" height="24" fill="white" transform="translate(0.511108)"/>
</clipPath>
</defs>
</svg>
