<svg width="36" height="36" viewBox="0 0 36 36" fill="none" xmlns="http://www.w3.org/2000/svg">
<g clip-path="url(#clip0_340_1725)">
<path d="M28.54 13H7.46002C7.19481 13 6.94045 12.8946 6.75292 12.7071C6.56538 12.5196 6.46002 12.2652 6.46002 12C6.46002 11.7348 6.56538 11.4804 6.75292 11.2929C6.94045 11.1054 7.19481 11 7.46002 11H28.54C28.8052 11 29.0596 11.1054 29.2471 11.2929C29.4347 11.4804 29.54 11.7348 29.54 12C29.54 12.2652 29.4347 12.5196 29.2471 12.7071C29.0596 12.8946 28.8052 13 28.54 13Z" fill="#5F717A"/>
<path d="M21.17 19H7.46002C7.19481 19 6.94045 18.8946 6.75292 18.7071C6.56538 18.5196 6.46002 18.2652 6.46002 18C6.46002 17.7348 6.56538 17.4804 6.75292 17.2929C6.94045 17.1054 7.19481 17 7.46002 17H21.17C21.4352 17 21.6896 17.1054 21.8771 17.2929C22.0647 17.4804 22.17 17.7348 22.17 18C22.17 18.2652 22.0647 18.5196 21.8771 18.7071C21.6896 18.8946 21.4352 19 21.17 19Z" fill="#5F717A"/>
<path d="M13.74 25H7.46002C7.19481 25 6.94045 24.8946 6.75292 24.7071C6.56538 24.5196 6.46002 24.2652 6.46002 24C6.46002 23.7348 6.56538 23.4804 6.75292 23.2929C6.94045 23.1054 7.19481 23 7.46002 23H13.74C14.0052 23 14.2596 23.1054 14.4471 23.2929C14.6347 23.4804 14.74 23.7348 14.74 24C14.74 24.2652 14.6347 24.5196 14.4471 24.7071C14.2596 24.8946 14.0052 25 13.74 25Z" fill="#5F717A"/>
</g>
<defs>
<clipPath id="clip0_340_1725">
<rect width="36" height="36" fill="white"/>
</clipPath>
</defs>
</svg>
