<svg width="25" height="24" viewBox="0 0 25 24" fill="none" xmlns="http://www.w3.org/2000/svg">
<path d="M11.7211 20H5.51111V10H19.5111V14.38L21.5111 12.38V6C21.5111 4.9 20.6111 4 19.5111 4H18.5111V2H16.5111V4H8.51111V2H6.51111V4H5.51111C4.40111 4 3.52111 4.9 3.52111 6L3.51111 20C3.51111 20.5304 3.72182 21.0391 4.09689 21.4142C4.47197 21.7893 4.98068 22 5.51111 22H13.7211L11.7211 20ZM17.0511 22.5L13.5111 18.96L14.9211 17.55L17.0411 19.67L21.2811 15.43L22.6911 16.84L17.0511 22.5ZM10.9211 14L12.5111 15.59L11.1011 17L9.51111 15.41L7.92111 17L6.51111 15.59L8.10111 14L6.51111 12.41L7.92111 11L9.51111 12.59L11.1011 11L12.5111 12.41L10.9211 14Z" fill="#505B6B"/>
</svg>
