<svg width="24" height="24" viewBox="0 0 24 24" fill="none" xmlns="http://www.w3.org/2000/svg">
<path d="M16.2782 17.7161L10.5488 12L16.2783 6.2839C16.5292 6.033 16.6701 5.6927 16.6701 5.33788C16.6701 4.98305 16.5292 4.64276 16.2783 4.39186C16.0274 4.14095 15.6871 4 15.3322 4C14.9774 4 14.6371 4.14095 14.3862 4.39185L7.72408 11.054C7.5992 11.1778 7.50007 11.3252 7.43243 11.4876C7.36478 11.6499 7.32995 11.8241 7.32995 12C7.32995 12.1759 7.36478 12.3501 7.43243 12.5124C7.50007 12.6748 7.5992 12.8222 7.72408 12.946L14.3862 19.6081C14.5104 19.7324 14.6579 19.8309 14.8202 19.8982C14.9826 19.9654 15.1565 20 15.3322 20C15.5079 20 15.6819 19.9654 15.8442 19.8982C16.0065 19.8309 16.154 19.7324 16.2782 19.6081C16.4025 19.4839 16.501 19.3364 16.5683 19.1741C16.6355 19.0118 16.6701 18.8378 16.6701 18.6621C16.6701 18.4864 16.6355 18.3125 16.5683 18.1501C16.501 17.9878 16.4025 17.8403 16.2782 17.7161Z" fill="#D23B38"/>
</svg>
