<svg width="25" height="24" viewBox="0 0 25 24" fill="none" xmlns="http://www.w3.org/2000/svg">
<path d="M15.4351 8.14046C15.6688 7.87052 15.778 7.52751 15.7395 7.18473C15.701 6.84194 15.5177 6.52656 15.2289 6.30595C14.94 6.08534 14.5685 5.97701 14.1937 6.00408C13.8189 6.03116 13.4705 6.19151 13.223 6.45087L8.42245 11.7309C8.24731 11.9236 8.1357 12.1581 8.1007 12.4068C8.06569 12.6556 8.10874 12.9083 8.22479 13.1355C8.34085 13.3626 8.52511 13.5548 8.75599 13.6894C8.98688 13.824 9.25484 13.8956 9.52849 13.8957H13.175L10.3427 17.0109C10.2162 17.1433 10.12 17.2976 10.0595 17.4647C9.99913 17.6318 9.97578 17.8083 9.99087 17.9837C10.006 18.1592 10.0592 18.3301 10.1474 18.4865C10.2356 18.6428 10.3571 18.7814 10.5046 18.8941C10.6521 19.0067 10.8228 19.0912 11.0064 19.1426C11.1901 19.1939 11.3831 19.2111 11.5742 19.1931C11.7652 19.175 11.9503 19.1221 12.1187 19.0375C12.2871 18.953 12.4354 18.8383 12.5548 18.7005L17.3553 13.4205C17.5304 13.2277 17.642 12.9933 17.677 12.7445C17.712 12.4958 17.669 12.243 17.5529 12.0159C17.4369 11.7887 17.2526 11.5966 17.0217 11.4619C16.7909 11.3273 16.5229 11.2558 16.2492 11.2557H12.6028L15.4351 8.14046Z" fill="#5F717A"/>
</svg>
