<svg width="25" height="24" viewBox="0 0 25 24" fill="none" xmlns="http://www.w3.org/2000/svg">
<g clip-path="url(#clip0_354_1510)">
<path d="M6.18892 14.275C5.88892 13.975 5.74725 13.6167 5.76392 13.2C5.78058 12.7833 5.94725 12.4583 6.26392 12.225C7.18058 11.525 8.20158 10.9793 9.32692 10.588C10.4522 10.1967 11.6396 10.0007 12.8889 10C14.1556 10 15.3516 10.2 16.4769 10.6C17.6022 11 18.6229 11.5583 19.5389 12.275C19.8556 12.5083 20.0182 12.8293 20.0269 13.238C20.0356 13.6467 19.8896 14.0007 19.5889 14.3C19.3056 14.5833 18.9596 14.7293 18.5509 14.738C18.1423 14.7467 17.7632 14.634 17.4139 14.4C16.7639 13.95 16.0599 13.604 15.3019 13.362C14.5439 13.12 13.7396 12.9993 12.8889 13C12.0389 13 11.2346 13.125 10.4759 13.375C9.71725 13.625 9.02158 13.9667 8.38892 14.4C8.02225 14.65 7.63458 14.7627 7.22592 14.738C6.81725 14.7133 6.47158 14.559 6.18892 14.275ZM1.93892 10.05C1.65558 9.76667 1.51392 9.42067 1.51392 9.012C1.51392 8.60333 1.66392 8.266 1.96392 8C3.44725 6.75 5.11392 5.77067 6.96392 5.062C8.81392 4.35333 10.7889 3.99933 12.8889 4C14.9889 4 16.9639 4.35433 18.8139 5.063C20.6639 5.77167 22.3306 6.75067 23.8139 8C24.1139 8.26667 24.2682 8.6 24.2769 9C24.2856 9.4 24.1396 9.75 23.8389 10.05C23.5556 10.3333 23.2099 10.4833 22.8019 10.5C22.3939 10.5167 22.0229 10.3917 21.6889 10.125C20.4722 9.14167 19.1179 8.375 17.6259 7.825C16.1339 7.275 14.5549 7 12.8889 7C11.2222 7 9.64325 7.275 8.15192 7.825C6.66058 8.375 5.30625 9.14167 4.08892 10.125C3.75558 10.3917 3.38458 10.5167 2.97592 10.5C2.56725 10.4833 2.22158 10.3333 1.93892 10.05ZM12.8889 20C12.3222 20 11.8472 19.8083 11.4639 19.425C11.0806 19.0417 10.8889 18.5667 10.8889 18C10.8889 17.4333 11.0806 16.9583 11.4639 16.575C11.8472 16.1917 12.3222 16 12.8889 16C13.4556 16 13.9306 16.1917 14.3139 16.575C14.6972 16.9583 14.8889 17.4333 14.8889 18C14.8889 18.5667 14.6972 19.0417 14.3139 19.425C13.9306 19.8083 13.4556 20 12.8889 20Z" fill="#5F717A"/>
</g>
<defs>
<clipPath id="clip0_354_1510">
<rect width="24" height="24" fill="white" transform="translate(0.888916)"/>
</clipPath>
</defs>
</svg>
