<svg width="24" height="24" viewBox="0 0 24 24" fill="none" xmlns="http://www.w3.org/2000/svg">
<path d="M7.72181 6.2839L13.4512 12L7.72181 17.7161C7.47091 17.967 7.32996 18.3073 7.32996 18.6621C7.32996 19.017 7.47091 19.3572 7.72181 19.6081C7.97271 19.859 8.31301 20 8.66783 20C9.02266 20 9.36295 19.859 9.61385 19.6081L16.276 12.946C16.4009 12.8222 16.5 12.6748 16.5676 12.5124C16.6353 12.3501 16.6701 12.1759 16.6701 12C16.6701 11.8241 16.6353 11.6499 16.5676 11.4876C16.5 11.3252 16.4009 11.1778 16.276 11.054L9.61385 4.39186C9.48962 4.26762 9.34213 4.16907 9.17982 4.10184C9.0175 4.0346 8.84352 4 8.66783 4C8.49214 4 8.31817 4.0346 8.15585 4.10184C7.99353 4.16907 7.84604 4.26762 7.72181 4.39186C7.59758 4.51609 7.49903 4.66358 7.43179 4.82589C7.36456 4.98821 7.32996 5.16218 7.32996 5.33788C7.32996 5.51357 7.36456 5.68754 7.43179 5.84986C7.49903 6.01218 7.59758 6.15966 7.72181 6.2839Z" fill="#D23B38"/>
</svg>
