<svg width="36" height="36" viewBox="0 0 36 36" fill="none" xmlns="http://www.w3.org/2000/svg">
<path d="M11.1432 8.74022C11.3685 8.51497 11.674 8.38844 11.9926 8.38844C12.3112 8.38844 12.6168 8.51497 12.8421 8.74022L17.648 13.5461C17.8668 13.7727 17.9879 14.0762 17.9852 14.3912C17.9825 14.7063 17.8561 15.0076 17.6333 15.2304C17.4106 15.4531 17.1092 15.5795 16.7942 15.5822C16.4792 15.585 16.1757 15.4639 15.9491 15.245L13.1941 12.49V26.4103C13.1941 26.729 13.0675 27.0346 12.8422 27.2599C12.6169 27.4852 12.3113 27.6118 11.9926 27.6118C11.674 27.6118 11.3684 27.4852 11.143 27.2599C10.9177 27.0346 10.7911 26.729 10.7911 26.4103V12.49L8.03616 15.245C7.80956 15.4639 7.50606 15.585 7.19104 15.5822C6.87601 15.5795 6.57467 15.4531 6.3519 15.2304C6.12914 15.0076 6.00278 14.7063 6.00005 14.3912C5.99731 14.0762 6.11841 13.7727 6.33727 13.5461L11.1432 8.74022ZM22.8059 23.51V9.58966C22.8059 9.27101 22.9325 8.96541 23.1578 8.74009C23.3831 8.51477 23.6887 8.38818 24.0074 8.38818C24.326 8.38818 24.6316 8.51477 24.857 8.74009C25.0823 8.96541 25.2089 9.27101 25.2089 9.58966V23.51L27.9638 20.755C28.1904 20.5361 28.4939 20.415 28.809 20.4178C29.124 20.4205 29.4253 20.5469 29.6481 20.7696C29.8709 20.9924 29.9972 21.2937 30 21.6087C30.0027 21.9238 29.8816 22.2273 29.6627 22.4539L24.8568 27.2598C24.6315 27.485 24.326 27.6115 24.0074 27.6115C23.6888 27.6115 23.3832 27.485 23.1579 27.2598L18.352 22.4539C18.1332 22.2273 18.0121 21.9238 18.0148 21.6087C18.0175 21.2937 18.1439 20.9924 18.3667 20.7696C18.5894 20.5469 18.8908 20.4205 19.2058 20.4178C19.5208 20.415 19.8243 20.5361 20.0509 20.755L22.8059 23.51Z" fill="#5F717A"/>
</svg>
