<svg width="25" height="24" viewBox="0 0 25 24" fill="none" xmlns="http://www.w3.org/2000/svg">
<path d="M8.88892 20C8.33892 20 7.86792 19.804 7.47592 19.412C7.08392 19.02 6.88825 18.5493 6.88892 18V8C6.88892 7.71667 6.98492 7.479 7.17692 7.287C7.36892 7.095 7.60625 6.99934 7.88892 7C8.17225 7 8.40992 7.096 8.60192 7.288C8.79392 7.48 8.88958 7.71734 8.88892 8V18H14.8889C15.1723 18 15.4099 18.096 15.6019 18.288C15.7939 18.48 15.8896 18.7173 15.8889 19C15.8889 19.2833 15.7929 19.521 15.6009 19.713C15.4089 19.905 15.1716 20.0007 14.8889 20H8.88892ZM12.3889 6C11.8389 6 11.3679 5.804 10.9759 5.412C10.5839 5.02 10.3883 4.54934 10.3889 4C10.3889 3.45 10.5849 2.979 10.9769 2.587C11.3689 2.195 11.8396 1.99934 12.3889 2C12.9389 2 13.4099 2.196 13.8019 2.588C14.1939 2.98 14.3896 3.45067 14.3889 4C14.3889 4.55 14.1929 5.021 13.8009 5.413C13.4089 5.805 12.9383 6.00067 12.3889 6ZM17.8889 22C17.6056 22 17.3679 21.904 17.1759 21.712C16.9839 21.52 16.8883 21.2827 16.8889 21V17H11.8889C11.3389 17 10.8679 16.804 10.4759 16.412C10.0839 16.02 9.88825 15.5493 9.88892 15V9.5C9.88892 8.8 10.1306 8.20833 10.6139 7.725C11.0973 7.24167 11.6889 7 12.3889 7C13.0889 7 13.6806 7.24167 14.1639 7.725C14.6473 8.20833 14.8889 8.8 14.8889 9.5V14H16.8889C17.4389 14 17.9099 14.196 18.3019 14.588C18.6939 14.98 18.8896 15.4507 18.8889 16V21C18.8889 21.2833 18.7929 21.521 18.6009 21.713C18.4089 21.905 18.1716 22.0007 17.8889 22Z" fill="#5F717A"/>
</svg>
