<svg width="80" height="80" viewBox="0 0 80 80" fill="none" xmlns="http://www.w3.org/2000/svg">
<path fill-rule="evenodd" clip-rule="evenodd" d="M37.2841 25.979C34.9964 25.8231 32.702 26.1281 30.5329 26.8872C28.3638 27.6395 26.353 28.8256 24.6322 30.3776C22.9049 31.9297 21.494 33.8138 20.4787 35.9284C19.4633 38.0429 18.8634 40.3405 18.7052 42.6855C18.5535 45.0373 18.8502 47.3958 19.5886 49.6256C20.3204 51.8554 21.4808 53.9226 22.984 55.6915C24.4938 57.4672 26.3266 58.9175 28.3836 59.9613C30.2428 60.9034 32.2471 61.4998 34.3041 61.7234H34.3173C38.5368 62.1707 42.776 61.0253 46.2373 58.4973C49.6986 55.9694 52.138 52.2282 53.1138 47.9855C54.083 43.736 53.516 39.2697 51.5183 35.4201C49.5206 31.5704 46.2242 28.6019 42.2486 27.077C41.7344 26.8804 41.1674 27.1448 40.9762 27.6734C40.785 28.202 41.0421 28.7849 41.5563 28.9815C45.0836 30.3369 48.0043 32.9666 49.7778 36.3825C51.5513 39.7915 52.0523 43.7563 51.1952 47.5178C50.3316 51.2861 48.1691 54.6003 45.1034 56.8436C42.1959 58.9718 38.6686 59.9952 35.115 59.7512H35.1018C33.0712 59.6089 31.0933 59.0667 29.2737 58.1381C27.454 57.2096 25.8255 55.9287 24.4872 54.3563C23.1488 52.7839 22.1269 50.954 21.4742 48.975C20.8215 46.996 20.5578 44.9017 20.6962 42.8211C20.8347 40.7336 21.3621 38.7003 22.2654 36.8298C23.1686 34.9592 24.4147 33.2851 25.9442 31.9093C27.4738 30.5335 29.2539 29.483 31.179 28.812C33.1042 28.141 35.1414 27.8699 37.1654 28.0123C37.7127 28.0529 38.1807 27.626 38.2203 27.0634C38.2599 26.5009 37.8445 26.0197 37.2973 25.979H37.2841Z" fill="#283350"/>
<path d="M29.3272 19.7884C31.0134 20.5141 32.9686 20.171 34.3071 18.9043C35.324 17.9411 36.9118 17.9411 37.9288 18.9043C39.2673 20.171 41.2225 20.5141 42.9087 19.7884C44.1947 19.2342 45.6841 19.7818 46.3139 21.0353C47.1406 22.6846 48.8596 23.6808 50.6968 23.5753C52.0943 23.4961 53.3081 24.5187 53.4721 25.9174C53.6886 27.7514 54.9681 29.2821 56.7264 29.8164C58.0649 30.2189 58.8588 31.6043 58.5373 32.97C58.1174 34.7645 58.7932 36.6448 60.2695 37.7465C61.3914 38.5844 61.667 40.1612 60.8993 41.3355C59.8955 42.8793 59.8955 44.8784 60.8993 46.4222C61.667 47.5965 61.3914 49.1667 60.2695 50.0112C58.7998 51.1129 58.1174 52.9932 58.5373 54.7877C58.8588 56.1534 58.0649 57.5388 56.7264 57.9413C54.9681 58.4757 53.6886 60.0063 53.4721 61.8403C53.3081 63.239 52.0943 64.2616 50.6968 64.1824C48.8662 64.0769 47.1406 65.0797 46.3139 66.7224C45.6841 67.9759 44.1947 68.5235 42.9087 67.9693C41.2225 67.2436 39.2673 67.5867 37.9288 68.8534C36.9118 69.8166 35.324 69.8166 34.3071 68.8534C32.9686 67.5867 31.0134 67.2436 29.3272 67.9693C28.0412 68.5235 26.5518 67.9759 25.9219 66.7224C25.0952 65.0731 23.3762 64.0769 21.5391 64.1824C20.1416 64.2616 18.9278 63.239 18.7637 61.8403C18.5472 60.0063 17.2678 58.4757 15.516 57.9413C14.1775 57.5388 13.3836 56.1534 13.7051 54.7877C14.125 52.9932 13.4492 51.1129 11.973 50.0112C10.851 49.1733 10.5754 47.5965 11.3431 46.4222C12.347 44.8784 12.347 42.8793 11.3431 41.3355C10.5754 40.1612 10.851 38.591 11.973 37.7465C13.4427 36.6448 14.125 34.7645 13.7051 32.97C13.3836 31.6043 14.1775 30.2189 15.516 29.8164C17.2744 29.2821 18.5538 27.7514 18.7637 25.9174C18.9278 24.5187 20.1416 23.4961 21.5391 23.5753C23.3696 23.6808 25.0952 22.678 25.9219 21.0353C26.5518 19.7818 28.0412 19.2342 29.3272 19.7884Z" stroke="#283350" stroke-width="2"/>
<path d="M26.0868 57.8158L62.5683 36.6051C64.1687 35.6744 64.7178 33.6106 63.7937 31.9988L60.171 25.6861C59.2469 24.0743 57.1978 23.5212 55.5974 24.4519L9.67415 51.1525C8.07373 52.0832 7.52463 54.1469 8.44872 55.7588L12.0714 62.0714C12.9955 63.6833 15.0446 64.2363 16.645 63.3056L20.2141 61.2352" fill="white"/>
<path d="M26.0868 57.8158L62.5683 36.6051C64.1687 35.6744 64.7178 33.6106 63.7937 31.9988L60.171 25.6861C59.2469 24.0743 57.1978 23.5212 55.5974 24.4519L9.67415 51.1525C8.07373 52.0832 7.52463 54.1469 8.44872 55.7588L12.0714 62.0714C12.9955 63.6833 15.0446 64.2363 16.645 63.3056L20.2141 61.2352" stroke="#283350" stroke-width="2" stroke-linecap="round"/>
<path d="M19.496 10.8583C19.7088 10.2796 20.5269 10.2796 20.7464 10.8583L21.2719 12.2751C21.3384 12.4547 21.4848 12.601 21.6644 12.6675L23.0811 13.193C23.6598 13.4059 23.6598 14.224 23.0811 14.4435L21.6644 14.969C21.4848 15.0355 21.3384 15.1818 21.2719 15.3614L20.7464 16.7782C20.5336 17.3569 19.7155 17.3569 19.496 16.7782L18.9705 15.3614C18.904 15.1818 18.7576 15.0355 18.5781 14.969L17.1613 14.4435C16.5826 14.2307 16.5826 13.4125 17.1613 13.193L18.5781 12.6675C18.7576 12.601 18.904 12.4547 18.9705 12.2751L19.496 10.8583Z" fill="#D23B38"/>
<path d="M55.8177 13.7966C56.0448 13.1791 56.9178 13.1791 57.152 13.7966L57.2585 14.0805C57.3295 14.2721 57.4856 14.4283 57.6772 14.4993L57.9611 14.6057C58.5786 14.8328 58.5786 15.7058 57.9611 15.9401L57.6772 16.0465C57.4856 16.1175 57.3295 16.2736 57.2585 16.4653L57.152 16.7492C56.9249 17.3667 56.0519 17.3667 55.8177 16.7492L55.7112 16.4653C55.6403 16.2736 55.4841 16.1175 55.2925 16.0465L55.0086 15.9401C54.3911 15.7129 54.3911 14.8399 55.0086 14.6057L55.2925 14.4993C55.4841 14.4283 55.6403 14.2721 55.7112 14.0805L55.8177 13.7966Z" fill="#D23B38"/>
<path d="M67.5418 57.3719C67.739 56.8357 68.4972 56.8357 68.7007 57.3719L69.3849 59.2212C69.4465 59.3876 69.5821 59.5232 69.7486 59.5849L71.5978 60.2691C72.1341 60.4663 72.1341 61.2245 71.5978 61.4279L69.7486 62.1122C69.5821 62.1738 69.4465 62.3094 69.3849 62.4758L68.7007 64.3251C68.5034 64.8614 67.7452 64.8614 67.5418 64.3251L66.8576 62.4758C66.7959 62.3094 66.6603 62.1738 66.4939 62.1122L64.6446 61.4279C64.1084 61.2307 64.1084 60.4725 64.6446 60.2691L66.4939 59.5849C66.6603 59.5232 66.7959 59.3876 66.8576 59.2212L67.5418 57.3719Z" fill="#D23B38"/>
<path d="M25.8134 52.9653C25.6186 53.0812 25.4408 53.1169 25.2799 53.0725C25.1189 53.0281 24.9809 52.9031 24.8658 52.6976L22.677 48.7911C22.5592 48.5808 22.5205 48.3904 22.5609 48.2198C22.5987 48.0444 22.7011 47.9071 22.868 47.8078C23.0164 47.7195 23.1484 47.6792 23.264 47.6868C23.3796 47.6945 23.5259 47.7349 23.7029 47.808L27.4984 49.3347L27.3036 49.4505L25.8498 46.8557C25.7373 46.655 25.7004 46.4732 25.7388 46.3101C25.782 46.1443 25.9009 46.0034 26.0957 45.8875C26.2904 45.7717 26.466 45.7373 26.6223 45.7845C26.7832 45.8289 26.9199 45.9515 27.0323 46.1522L29.2573 50.1232C29.359 50.3048 29.3943 50.4782 29.3631 50.6432C29.3293 50.8036 29.2335 50.9306 29.0759 51.0244C28.9182 51.1182 28.7769 51.164 28.652 51.1619C28.5291 51.1522 28.3805 51.1132 28.2062 51.0448L24.4067 49.511L24.6014 49.3952L26.0553 51.99C26.1704 52.1954 26.2064 52.3811 26.1633 52.5469C26.1248 52.71 26.0082 52.8494 25.8134 52.9653Z" fill="#D23B38"/>
<path d="M32.8598 48.7924C32.3636 49.0876 31.8674 49.2394 31.3713 49.2478C30.8725 49.2515 30.409 49.1195 29.9808 48.8518C29.5572 48.5813 29.1994 48.1857 28.9076 47.6648C28.6881 47.273 28.5466 46.8825 28.4831 46.4933C28.4243 46.1014 28.4396 45.726 28.529 45.3669C28.6231 45.0051 28.7897 44.6734 29.0289 44.3719C29.2653 44.0655 29.5691 43.802 29.94 43.5813C30.4363 43.2861 30.9301 43.1357 31.4216 43.13C31.9177 43.1215 32.3799 43.2512 32.8081 43.5189C33.2337 43.7818 33.5937 44.1761 33.8882 44.7017C34.1078 45.0936 34.2469 45.4854 34.3058 45.8773C34.3692 46.2665 34.3552 46.6443 34.2638 47.0109C34.1744 47.37 34.0114 47.7026 33.775 48.009C33.5358 48.3105 33.2308 48.5717 32.8598 48.7924ZM32.2413 47.6885C32.4871 47.5423 32.6623 47.3584 32.7669 47.1369C32.8716 46.9153 32.9074 46.6647 32.8743 46.3849C32.8412 46.1051 32.7363 45.8075 32.5596 45.4921C32.2945 45.0191 31.9863 44.7118 31.635 44.5704C31.2837 44.4289 30.9249 44.4672 30.5585 44.6852C30.3174 44.8286 30.1422 45.0125 30.0329 45.2368C29.9256 45.4536 29.8884 45.7019 29.9215 45.9816C29.9519 46.2566 30.0568 46.5542 30.2362 46.8744C30.5013 47.3475 30.8108 47.6571 31.1648 47.8033C31.5161 47.9447 31.8749 47.9065 32.2413 47.6885Z" fill="#D23B38"/>
<path d="M38.7351 45.2779C38.531 45.3993 38.3389 45.4371 38.1587 45.3914C37.9805 45.3382 37.8298 45.2016 37.7066 44.9818L35.6022 41.2258C35.479 41.006 35.4409 40.8057 35.488 40.6248C35.537 40.4363 35.6705 40.2773 35.8884 40.1476L38.2048 38.7695C38.3718 38.6702 38.5211 38.6387 38.6528 38.6751C38.7844 38.7114 38.8958 38.8108 38.9868 38.9733C39.0805 39.1405 39.1111 39.2944 39.0785 39.4349C39.0432 39.5705 38.9421 39.688 38.7751 39.7874L37.0709 40.8013L37.6412 41.8191L39.1924 40.8962C39.3547 40.7997 39.5017 40.7696 39.6333 40.8059C39.7696 40.8395 39.8833 40.9376 39.9743 41.1C40.0681 41.2673 40.095 41.4201 40.055 41.5586C40.0198 41.6942 39.921 41.8104 39.7587 41.9069L38.2074 42.8298L38.9866 44.2204C39.2409 44.6743 39.1571 45.0268 38.7351 45.2779Z" fill="#D23B38"/>
<path d="M42.7481 42.8044C42.5302 42.9341 42.3311 42.9761 42.1509 42.9304C41.9727 42.8771 41.822 42.7406 41.6988 42.5208L39.6305 38.8293C39.5073 38.6095 39.4693 38.4091 39.5163 38.2282C39.5653 38.0398 39.6988 37.8807 39.9167 37.751L42.2749 36.3481C42.4418 36.2488 42.5911 36.2173 42.7228 36.2537C42.8545 36.29 42.9658 36.3894 43.0569 36.5519C43.1506 36.7192 43.1811 36.873 43.1485 37.0135C43.1132 37.1491 43.0121 37.2666 42.8452 37.366L41.0435 38.4378L41.5817 39.3983L43.2303 38.4175C43.3926 38.321 43.5396 38.2908 43.6713 38.3272C43.8076 38.3608 43.9226 38.4612 44.0163 38.6285C44.11 38.7957 44.1369 38.9486 44.097 39.087C44.0617 39.2227 43.9629 39.3388 43.8006 39.4354L42.152 40.4162L42.7343 41.4555L44.536 40.3837C44.7029 40.2843 44.8536 40.2552 44.9879 40.2964C45.1196 40.3327 45.2309 40.4321 45.322 40.5946C45.4157 40.7619 45.4449 40.9133 45.4096 41.049C45.3743 41.1847 45.2732 41.3022 45.1063 41.4015L42.7481 42.8044Z" fill="#D23B38"/>
<path d="M47.021 40.2624C46.803 40.392 46.604 40.434 46.4238 40.3883C46.2455 40.3351 46.0948 40.1985 45.9717 39.9787L43.9034 36.2872C43.7802 36.0674 43.7421 35.8671 43.7892 35.6862C43.8382 35.4977 43.9717 35.3387 44.1896 35.209L46.5478 33.8061C46.7147 33.7068 46.864 33.6753 46.9957 33.7116C47.1274 33.748 47.2387 33.8474 47.3297 34.0099C47.4234 34.1771 47.454 34.331 47.4214 34.4714C47.3861 34.6071 47.285 34.7246 47.1181 34.8239L45.3164 35.8958L45.8546 36.8563L47.5032 35.8755C47.6655 35.7789 47.8125 35.7488 47.9441 35.7852C48.0805 35.8188 48.1955 35.9192 48.2892 36.0864C48.3829 36.2537 48.4098 36.4065 48.3699 36.545C48.3346 36.6806 48.2358 36.7968 48.0735 36.8933L46.4249 37.8741L47.0072 38.9135L48.8088 37.8416C48.9758 37.7423 49.1264 37.7132 49.2608 37.7543C49.3925 37.7907 49.5038 37.8901 49.5948 38.0526C49.6885 38.2198 49.7178 38.3713 49.6825 38.507C49.6472 38.6426 49.5461 38.7601 49.3791 38.8595L47.021 40.2624Z" fill="#D23B38"/>
</svg>
