<svg width="24" height="24" viewBox="0 0 24 24" fill="none" xmlns="http://www.w3.org/2000/svg">
<path d="M12 2C15.8941 2 19.0588 5.12941 19.0588 9C19.0588 14.2471 12 22 12 22C12 22 4.94116 14.2471 4.94116 9C4.94116 5.12941 8.10587 2 12 2ZM12 6.70588C11.3759 6.70588 10.7775 6.95378 10.3362 7.39504C9.89494 7.83631 9.64704 8.43478 9.64704 9.05882C9.64704 9.68286 9.89494 10.2813 10.3362 10.7226C10.7775 11.1639 11.3759 11.4118 12 11.4118C12.624 11.4118 13.2225 11.1639 13.6638 10.7226C14.105 10.2813 14.3529 9.68286 14.3529 9.05882C14.3529 8.43478 14.105 7.83631 13.6638 7.39504C13.2225 6.95378 12.624 6.70588 12 6.70588Z" fill="#304C5F"/>
</svg>
