<svg width="120" height="96" viewBox="0 0 120 96" fill="none" xmlns="http://www.w3.org/2000/svg">
<g filter="url(#filter0_d_315_1549)">
<rect x="21.3229" y="21.3229" width="77.3542" height="53.3542" rx="14.5521" fill="white" stroke="#D9D9D9" stroke-width="2.64583"/>
<path fill-rule="evenodd" clip-rule="evenodd" d="M62.9838 38.9978L58.92 39.8881V36.5247L62.9838 35.6509V38.9978ZM46.4693 37.5635L42.5188 38.4209L42.5026 51.6273C42.5026 54.0674 44.2998 55.8646 46.696 55.8646C48.0236 55.8646 48.995 55.6172 49.5293 55.3205V51.9735C49.0112 52.1879 46.4531 52.9463 46.4531 50.5061V44.6531H49.5293V41.1413H46.4531L46.4693 37.5635ZM36.9009 44.4389C36.0428 44.4389 35.5247 44.6862 35.5247 45.3292C35.5247 46.0313 36.4164 46.3401 37.5226 46.7233C39.3259 47.3479 41.6995 48.17 41.7095 51.2152C41.7095 54.1665 39.3943 55.8647 36.0266 55.8647C34.6342 55.8647 33.1123 55.5844 31.6066 54.9249V51.0009C32.9666 51.7593 34.6828 52.3199 36.0266 52.3199C36.9333 52.3199 37.5809 52.0726 37.5809 51.3142C37.5809 50.5365 36.6143 50.181 35.4474 49.7519C33.6703 49.0984 31.4285 48.2739 31.4285 45.5271C31.4285 42.6088 33.6142 40.8611 36.9009 40.8611C38.2447 40.8611 39.5724 41.0755 40.9162 41.6196V45.4941C39.6857 44.8181 38.1314 44.4389 36.9009 44.4389ZM54.5648 42.3614L54.3058 41.1414H50.8086V55.5679H54.8562V45.7908C55.8115 44.5213 57.4305 44.7521 57.9324 44.9335V41.1414C57.4143 40.9435 55.5201 40.5808 54.5648 42.3614ZM58.9197 41.1415H62.9835V55.5679H58.9197V41.1415ZM89.7142 48.4124C89.7142 44.1916 87.7066 40.8611 83.8695 40.8611C80.0161 40.8611 77.6847 44.1916 77.6847 48.3794C77.6847 53.3421 80.4371 55.8482 84.3876 55.8482C86.3142 55.8482 87.7714 55.403 88.8723 54.7765V51.479C87.7714 52.0396 86.5085 52.3858 84.9056 52.3858C83.3352 52.3858 81.9428 51.8253 81.7647 49.8797H89.6818C89.6818 49.7889 89.6877 49.5827 89.6944 49.345V49.3448V49.3447V49.3446C89.7035 49.0214 89.7142 48.6403 89.7142 48.4124ZM81.716 46.8458C81.716 44.9828 82.8332 44.2079 83.8532 44.2079C84.8408 44.2079 85.8932 44.9828 85.8932 46.8458H81.716ZM68.2616 42.1471C68.8283 41.6196 69.8483 40.8611 71.435 40.8611C74.2683 40.8611 76.9397 43.4661 76.9559 48.2475C76.9559 53.474 74.3169 55.8482 71.4188 55.8482C69.994 55.8482 69.1359 55.2382 68.5531 54.8095L68.5369 59.4754L64.4892 60.3493V41.1249H68.0511L68.2616 42.1471ZM68.553 51.4459C68.9416 51.8745 69.5082 52.2208 70.4635 52.2208C71.953 52.2208 72.9568 50.572 72.9568 48.3627C72.9568 46.2029 71.9368 44.5212 70.4635 44.5212C69.5406 44.5212 68.9578 44.8509 68.5368 45.329L68.553 51.4459Z" fill="#6461FC"/>
</g>
<defs>
<filter id="filter0_d_315_1549" x="0" y="0" width="120" height="96" filterUnits="userSpaceOnUse" color-interpolation-filters="sRGB">
<feFlood flood-opacity="0" result="BackgroundImageFix"/>
<feColorMatrix in="SourceAlpha" type="matrix" values="0 0 0 0 0 0 0 0 0 0 0 0 0 0 0 0 0 0 127 0" result="hardAlpha"/>
<feOffset/>
<feGaussianBlur stdDeviation="10"/>
<feComposite in2="hardAlpha" operator="out"/>
<feColorMatrix type="matrix" values="0 0 0 0 0 0 0 0 0 0 0 0 0 0 0 0 0 0 0.07 0"/>
<feBlend mode="normal" in2="BackgroundImageFix" result="effect1_dropShadow_315_1549"/>
<feBlend mode="normal" in="SourceGraphic" in2="effect1_dropShadow_315_1549" result="shape"/>
</filter>
</defs>
</svg>
