<svg width="24" height="25" viewBox="0 0 24 25" fill="none" xmlns="http://www.w3.org/2000/svg">
<path d="M9.15002 3.18818L17.575 11.5882C17.675 11.6882 17.746 11.7965 17.788 11.9132C17.83 12.0298 17.8507 12.1548 17.85 12.2882C17.85 12.4215 17.829 12.5465 17.787 12.6632C17.745 12.7798 17.6744 12.8882 17.575 12.9882L9.15002 21.4132C8.91669 21.6465 8.62502 21.7632 8.27502 21.7632C7.92502 21.7632 7.62502 21.6382 7.37502 21.3882C7.12502 21.1382 7.00002 20.8465 7.00002 20.5132C7.00002 20.1799 7.12502 19.8882 7.37502 19.6382L14.725 12.2882L7.37502 4.93818C7.14169 4.70485 7.02502 4.41718 7.02502 4.07518C7.02502 3.73318 7.15002 3.43752 7.40002 3.18818C7.65002 2.93818 7.94169 2.81318 8.27502 2.81318C8.60835 2.81318 8.90002 2.93818 9.15002 3.18818Z" fill="white"/>
</svg>
