<svg width="32" height="32" viewBox="0 0 32 32" fill="none" xmlns="http://www.w3.org/2000/svg">
<path d="M23.1849 18.147C22.8786 17.8397 22.7254 17.4485 22.7254 16.9735C22.7254 16.4985 22.8786 16.1073 23.1849 15.8L26.3182 12.6566H15.9992C15.5257 12.6566 15.1286 12.4957 14.8077 12.1738C14.4869 11.8519 14.327 11.454 14.3281 10.9801C14.3281 10.5051 14.4885 10.1067 14.8094 9.78481C15.1302 9.46293 15.5268 9.30255 15.9992 9.30367H26.3182L23.1849 6.16029C22.8786 5.85294 22.7254 5.4545 22.7254 4.96497C22.7254 4.47545 22.8786 4.07756 23.1849 3.77133C23.4913 3.46398 23.8812 3.3103 24.3547 3.3103C24.8282 3.3103 25.2181 3.46398 25.5245 3.77133L31.5404 9.80661C31.7075 9.97425 31.8262 10.1559 31.8964 10.3515C31.9666 10.547 32.0011 10.7566 32 10.9801C32 11.2037 31.9649 11.4132 31.8947 11.6088C31.8245 11.8044 31.7064 11.986 31.5404 12.1537L25.5245 18.1889C25.2181 18.4963 24.8282 18.6433 24.3547 18.6298C23.8812 18.6164 23.4913 18.4555 23.1849 18.147ZM6.47394 28.2477L0.457984 22.2124C0.290874 22.0448 0.172226 21.8632 0.10204 21.6676C0.0318535 21.472 -0.00212529 21.2625 0.000102837 21.0389C0.000102837 20.8154 0.0351959 20.6058 0.105382 20.4102C0.175568 20.2147 0.293102 20.033 0.457984 19.8654L6.47394 13.8301C6.78031 13.5228 7.17023 13.3691 7.64371 13.3691C8.11719 13.3691 8.50711 13.5228 8.81348 13.8301C9.11984 14.1375 9.27303 14.5359 9.27303 15.0254C9.27303 15.515 9.11984 15.9129 8.81348 16.2191L5.68017 19.3625H15.9992C16.4727 19.3625 16.8698 19.5234 17.1907 19.8453C17.5115 20.1672 17.6714 20.565 17.6703 21.0389C17.6703 21.5139 17.5099 21.9124 17.189 22.2342C16.8682 22.5561 16.4716 22.7165 15.9992 22.7154H5.68017L8.81348 25.8588C9.11984 26.1661 9.27303 26.5573 9.27303 27.0323C9.27303 27.5073 9.11984 27.8985 8.81348 28.2058C8.50711 28.5132 8.11719 28.6741 7.64371 28.6886C7.17023 28.7032 6.78031 28.5562 6.47394 28.2477Z" fill="#D23B38"/>
</svg>
