<svg width="24" height="24" viewBox="0 0 24 24" fill="none" xmlns="http://www.w3.org/2000/svg">
<g clip-path="url(#clip0_339_1664)">
<path d="M15.3626 0.346289C14.9949 0.484289 15.9187 -0.416672 5.64166 9.79605C-0.163218 15.5599 0.218142 15.137 0.259662 15.7944C0.273342 16.0058 0.319422 16.1942 0.388302 16.3274C0.503262 16.5573 1.9831 18.0832 2.1991 18.1982C2.3875 18.2947 2.5759 18.2534 2.91142 18.0328C3.78934 17.4674 4.70854 17.4768 5.48062 18.065C6.08734 18.52 6.40918 19.2369 6.34462 19.9908C6.31246 20.3906 6.19294 20.7261 5.94934 21.0801C5.7379 21.388 5.69662 21.5121 5.74246 21.696C5.78374 21.8752 7.31902 23.4057 7.62238 23.5759C7.82926 23.6908 7.9027 23.7045 8.24758 23.7045C8.59702 23.7045 8.6659 23.6908 8.8819 23.5665C9.1807 23.3918 23.4473 9.15741 23.6357 8.83557C23.7413 8.65629 23.7597 8.57829 23.7597 8.26101C23.7597 7.96677 23.7367 7.85205 23.6493 7.68645C23.5298 7.45653 22.0454 5.92605 21.8337 5.81589C21.6499 5.71941 21.4521 5.76069 21.1536 5.96301C20.478 6.40893 19.6783 6.47325 18.9657 6.13317C18.8232 6.06885 18.5796 5.88957 18.4188 5.74245C17.6373 5.00709 17.4996 3.86253 18.0878 2.95245C18.3084 2.61237 18.3499 2.42397 18.2534 2.23533C18.1385 2.01933 16.6125 0.539248 16.3829 0.424528C16.1256 0.291328 15.611 0.254368 15.3626 0.346289ZM15.9372 1.25637C15.9924 1.28397 16.3094 1.57341 16.6358 1.89981L17.238 2.49741L17.0909 2.80077C16.6634 3.68325 16.6865 4.73565 17.1552 5.64117C17.4079 6.12837 17.9918 6.69837 18.4973 6.94197C19.0212 7.19925 19.3476 7.27749 19.8991 7.28205C20.423 7.28205 20.7953 7.20381 21.2688 6.98781L21.5813 6.84069L22.1558 7.41525C22.7901 8.04501 22.8866 8.17365 22.8223 8.33901C22.7993 8.39877 22.1925 9.02853 21.4757 9.74085C20.4552 10.7613 20.1612 11.028 20.106 10.9958C20.0693 10.9728 19.9589 10.9497 19.8624 10.9497C19.536 10.9497 19.3154 11.3174 19.4671 11.6023C19.5132 11.6896 19.0351 12.1814 13.9884 17.2281C10.146 21.0705 8.41774 22.7666 8.33518 22.7848C8.14222 22.8261 7.99966 22.7251 7.38382 22.1047L6.81382 21.5347L6.95638 21.2544C7.1863 20.7993 7.2919 20.3306 7.2919 19.7973C7.28734 19.2504 7.2091 18.9148 6.9655 18.4185C6.64846 17.7751 6.18406 17.3155 5.51302 16.9936C5.02582 16.7592 4.6903 16.6812 4.15702 16.6812C3.69286 16.6812 3.30214 16.7776 2.81038 17.003L2.45182 17.1732L1.87726 16.5986C1.2475 15.9782 1.15102 15.8356 1.19254 15.6427C1.21102 15.5508 2.8243 13.919 6.75862 10.0123C11.1571 5.63661 12.3108 4.51533 12.3751 4.54269C12.4164 4.56117 12.5268 4.58397 12.6187 4.59333C12.8486 4.62093 13.0737 4.41405 13.0737 4.17045C13.0737 4.07853 13.0553 3.96813 13.0325 3.92229C12.9957 3.85797 13.2072 3.62349 14.2826 2.55261C14.9949 1.84485 15.611 1.25181 15.6477 1.23813C15.7579 1.19661 15.8316 1.20141 15.9372 1.25637Z" fill="#889091"/>
<path d="M13.6207 5.16334C13.4736 5.32414 13.4508 5.50342 13.5518 5.70118C13.6255 5.83438 14.1722 6.38614 14.3609 6.51022C14.5356 6.62518 14.7422 6.60214 14.9078 6.45046C15.0228 6.34006 15.0504 6.2803 15.0504 6.1195C15.0504 5.9311 15.0319 5.9035 14.5999 5.4715C14.1679 5.0395 14.1403 5.02102 13.9519 5.02102C13.7909 5.02078 13.7311 5.04838 13.6207 5.16334Z" fill="#889091"/>
<path d="M15.6062 7.13949C15.4546 7.29117 15.4224 7.47045 15.5143 7.65429C15.588 7.80141 16.1993 8.41725 16.3464 8.49549C16.6774 8.67021 17.0266 8.46333 17.0266 8.09565C17.0266 7.90725 17.0035 7.87965 16.5761 7.44765C16.1532 7.02477 16.1119 6.99717 15.9372 6.99717C15.7855 6.99717 15.7166 7.02477 15.6062 7.13949Z" fill="#889091"/>
<path d="M17.6884 9.02395C17.4861 9.12499 17.3851 9.42835 17.4907 9.63067C17.5641 9.77779 18.1756 10.3936 18.3225 10.4719C18.6259 10.6327 18.9568 10.4856 19.0212 10.1548C19.0579 9.96187 18.966 9.81931 18.5018 9.37339C18.148 9.03331 18.0652 8.97355 17.9366 8.97811C17.8538 8.97811 17.7434 9.00115 17.6884 9.02395Z" fill="#889091"/>
</g>
<defs>
<clipPath id="clip0_339_1664">
<rect width="24" height="24" fill="white"/>
</clipPath>
</defs>
</svg>
