<svg width="48" height="49" viewBox="0 0 48 49" fill="none" xmlns="http://www.w3.org/2000/svg">
<path d="M44.8 11.6754C43.2688 12.3554 41.624 12.813 39.8976 13.0194C41.6608 11.9634 43.0128 10.2914 43.6496 8.29783C42.0016 9.27543 40.1744 9.98583 38.2288 10.3698C36.672 8.71063 34.4544 7.67383 32 7.67383C27.2864 7.67383 23.4656 11.4962 23.4656 16.2082C23.4656 16.877 23.5424 17.5298 23.6864 18.1522C16.5936 17.797 10.3056 14.3986 6.09439 9.23383C5.36159 10.4946 4.94079 11.9602 4.94079 13.5266C4.94079 16.4866 6.44639 19.0994 8.73599 20.629C7.33759 20.5842 6.02079 20.2002 4.87039 19.5618C4.87039 19.5986 4.87039 19.6322 4.87039 19.669C4.87039 23.805 7.81119 27.2546 11.7168 28.037C11.0016 28.2322 10.2464 28.3362 9.46719 28.3362C8.91839 28.3362 8.38239 28.2818 7.86239 28.1842C8.94879 31.5746 12.1008 34.0434 15.8352 34.1122C12.9152 36.4018 9.2352 37.7666 5.23519 37.7666C4.54719 37.7666 3.86719 37.7266 3.19839 37.6466C6.97599 40.0674 11.4608 41.4802 16.2816 41.4802C31.9808 41.4802 40.5632 28.4754 40.5632 17.197C40.5632 16.8274 40.5552 16.4594 40.5392 16.093C42.208 14.8882 43.656 13.3858 44.8 11.6754Z" fill="#283350"/>
</svg>
